<svg xmlns="http://www.w3.org/2000/svg" xmlns:xlink="http://www.w3.org/1999/xlink" viewBox="0 0 1552.38 1478.73"><defs><style>.cls-1{isolation:isolate;}.cls-2{fill:#202249;}.cls-10,.cls-11,.cls-12,.cls-13,.cls-14,.cls-15,.cls-16,.cls-17,.cls-18,.cls-19,.cls-2,.cls-20,.cls-21,.cls-22,.cls-23,.cls-24,.cls-25,.cls-26,.cls-27,.cls-28,.cls-29,.cls-3,.cls-30,.cls-31,.cls-32,.cls-33,.cls-34,.cls-35,.cls-36,.cls-37,.cls-38,.cls-39,.cls-4,.cls-40,.cls-41,.cls-42,.cls-43,.cls-44,.cls-45,.cls-46,.cls-47,.cls-48,.cls-49,.cls-5,.cls-50,.cls-51,.cls-52,.cls-53,.cls-54,.cls-55,.cls-56,.cls-57,.cls-58,.cls-59,.cls-6,.cls-60,.cls-61,.cls-62,.cls-63,.cls-64,.cls-65,.cls-66,.cls-67,.cls-68,.cls-69,.cls-7,.cls-70,.cls-8,.cls-9{fill-rule:evenodd;}.cls-3{fill:url(#GradientFill_22);}.cls-4{fill:#1e2353;}.cls-4,.cls-6{opacity:0.3;}.cls-11,.cls-12,.cls-13,.cls-17,.cls-30,.cls-35,.cls-4,.cls-57{mix-blend-mode:multiply;}.cls-5{fill:url(#GradientFill_22-2);}.cls-39,.cls-6{fill:#955cf1;}.cls-7{fill:url(#linear-gradient);}.cls-8{fill:url(#linear-gradient-2);}.cls-9{fill:#4a9ff8;}.cls-10{fill:#5858f0;}.cls-11,.cls-12,.cls-13,.cls-16,.cls-17,.cls-35,.cls-67,.cls-69,.cls-70{opacity:0.5;}.cls-11{fill:url(#linear-gradient-3);}.cls-12{fill:url(#linear-gradient-4);}.cls-13{fill:url(#linear-gradient-5);}.cls-14{fill:#d0e7ff;}.cls-15{fill:url(#linear-gradient-6);}.cls-16,.cls-19{fill:#fffcf1;}.cls-17{fill:url(#linear-gradient-7);}.cls-18{fill:url(#linear-gradient-8);}.cls-20,.cls-67{fill:#fff;}.cls-21{fill:url(#linear-gradient-9);}.cls-22{fill:url(#linear-gradient-10);}.cls-23{fill:#ffdb59;}.cls-24,.cls-26,.cls-37,.cls-39{opacity:0.2;}.cls-24{fill:url(#linear-gradient-11);}.cls-25{fill:url(#linear-gradient-12);}.cls-26{fill:url(#linear-gradient-13);}.cls-27{fill:url(#linear-gradient-14);}.cls-28{fill:url(#linear-gradient-15);}.cls-29{fill:url(#linear-gradient-16);}.cls-30{fill:#3469c0;}.cls-30,.cls-57{opacity:0.35;}.cls-31{fill:url(#linear-gradient-17);}.cls-32{fill:url(#linear-gradient-18);}.cls-33{fill:#ffa698;}.cls-34{fill:#ff9080;}.cls-35{fill:url(#linear-gradient-19);}.cls-36{fill:url(#linear-gradient-20);}.cls-37{fill:url(#linear-gradient-21);}.cls-38{fill:url(#linear-gradient-22);}.cls-40{fill:url(#linear-gradient-23);}.cls-41{fill:#6d6afd;}.cls-42{fill:#b269eb;}.cls-43{fill:url(#linear-gradient-24);}.cls-44{fill:url(#linear-gradient-25);}.cls-45{fill:url(#linear-gradient-26);}.cls-46{fill:url(#linear-gradient-27);}.cls-47{fill:#ffa495;}.cls-48{fill:#193161;}.cls-49{fill:url(#linear-gradient-28);}.cls-50{fill:url(#GradientFill_15);}.cls-51{fill:url(#linear-gradient-29);}.cls-52{fill:url(#GradientFill_15-2);}.cls-53{fill:url(#linear-gradient-30);}.cls-54{fill:#ff8978;}.cls-55{fill:url(#linear-gradient-31);}.cls-56{fill:url(#linear-gradient-32);}.cls-57{fill:#6266d7;}.cls-58{fill:url(#linear-gradient-33);}.cls-59{fill:url(#linear-gradient-34);}.cls-60{fill:#ffb49c;}.cls-61{fill:#ff9d8e;}.cls-62{fill:#726cde;}.cls-63{fill:#562e65;}.cls-64{fill:url(#linear-gradient-35);}.cls-65{fill:url(#linear-gradient-36);}.cls-66{fill:url(#linear-gradient-37);}.cls-68{fill:url(#linear-gradient-38);}.cls-69{fill:url(#linear-gradient-39);}.cls-70{fill:#ff89db;}</style><linearGradient id="GradientFill_22" x1="917.24" y1="213.32" x2="917.22" y2="342.5" gradientUnits="userSpaceOnUse"><stop offset="0" stop-color="#324179"/><stop offset="1" stop-color="#0c124d"/></linearGradient><linearGradient id="GradientFill_22-2" x1="938.74" y1="221.57" x2="938.66" y2="441.62" xlink:href="#GradientFill_22"/><linearGradient id="linear-gradient" x1="1042.26" y1="439.41" x2="903.72" y2="1280.31" gradientUnits="userSpaceOnUse"><stop offset="0" stop-color="#d1e8ff"/><stop offset="1" stop-color="#eaefff"/></linearGradient><linearGradient id="linear-gradient-2" x1="1122.68" y1="280.27" x2="799.37" y2="1315.97" gradientUnits="userSpaceOnUse"><stop offset="0" stop-color="#6d6afe"/><stop offset="1" stop-color="#3fb0f7"/></linearGradient><linearGradient id="linear-gradient-3" x1="1271.43" y1="956.93" x2="1353.03" y2="785.33" gradientUnits="userSpaceOnUse"><stop offset="0" stop-color="#965cf2"/><stop offset="1" stop-color="#ff8adc"/></linearGradient><linearGradient id="linear-gradient-4" x1="1260.87" y1="653.4" x2="1412.03" y2="432.59" xlink:href="#linear-gradient-3"/><linearGradient id="linear-gradient-5" x1="549.58" y1="878.5" x2="644.35" y2="671.79" xlink:href="#linear-gradient-3"/><linearGradient id="linear-gradient-6" x1="434.09" y1="653.37" x2="396.55" y2="760.99" gradientUnits="userSpaceOnUse"><stop offset="0" stop-color="#1c8ef4"/><stop offset="1" stop-color="#00cfdd"/></linearGradient><linearGradient id="linear-gradient-7" x1="561.66" y1="354.4" x2="638.42" y2="97.69" xlink:href="#linear-gradient-3"/><linearGradient id="linear-gradient-8" x1="539.63" y1="95.95" x2="452.14" y2="383.32" xlink:href="#linear-gradient-2"/><linearGradient id="linear-gradient-9" x1="1278.13" y1="901.35" x2="1303.8" y2="851.49" xlink:href="#linear-gradient-3"/><linearGradient id="linear-gradient-10" x1="969.19" y1="976.49" x2="907.43" y2="1072.57" gradientUnits="userSpaceOnUse"><stop offset="0" stop-color="#ff66bc"/><stop offset="0.56" stop-color="#ff8adc"/><stop offset="1" stop-color="#ffbba8"/></linearGradient><linearGradient id="linear-gradient-11" x1="985.78" y1="1010.87" x2="824.75" y2="1017.78" xlink:href="#linear-gradient-10"/><linearGradient id="linear-gradient-12" x1="1206.58" y1="1218.7" x2="1236.29" y2="1137.04" xlink:href="#linear-gradient-3"/><linearGradient id="linear-gradient-13" x1="1214.3" y1="1252.69" x2="1203.44" y2="1049.19" xlink:href="#linear-gradient-3"/><linearGradient id="linear-gradient-14" x1="813.05" y1="15.61" x2="813.25" y2="161.52" gradientUnits="userSpaceOnUse"><stop offset="0" stop-color="#5a2d68"/><stop offset="1" stop-color="#22043d"/></linearGradient><linearGradient id="linear-gradient-15" x1="817.13" y1="264.8" x2="810.87" y2="262.58" gradientUnits="userSpaceOnUse"><stop offset="0" stop-color="#ff8a78"/><stop offset="1" stop-color="#ffa799"/></linearGradient><linearGradient id="linear-gradient-16" x1="820.15" y1="215.13" x2="819.28" y2="89.84" xlink:href="#linear-gradient-3"/><linearGradient id="linear-gradient-17" x1="899.87" y1="186.45" x2="869.98" y2="91.36" xlink:href="#linear-gradient-3"/><linearGradient id="linear-gradient-18" x1="826.11" y1="78.39" x2="833.67" y2="87.59" xlink:href="#linear-gradient-15"/><linearGradient id="linear-gradient-19" x1="933.32" y1="755.48" x2="787.64" y2="182.42" xlink:href="#linear-gradient-3"/><linearGradient id="linear-gradient-20" x1="943.05" y1="344.47" x2="891.08" y2="418.35" xlink:href="#linear-gradient-2"/><linearGradient id="linear-gradient-21" x1="776.25" y1="438.38" x2="764.11" y2="455.56" xlink:href="#linear-gradient-2"/><linearGradient id="linear-gradient-22" x1="786.15" y1="437.28" x2="748.94" y2="465.49" xlink:href="#linear-gradient-2"/><linearGradient id="linear-gradient-23" x1="1292.4" y1="425.32" x2="1237.48" y2="608.4" xlink:href="#linear-gradient-2"/><linearGradient id="linear-gradient-24" x1="1250.48" y1="514.66" x2="1275.68" y2="437.17" xlink:href="#linear-gradient-3"/><linearGradient id="linear-gradient-25" x1="1246.48" y1="511.01" x2="1269.45" y2="471.89" xlink:href="#linear-gradient-2"/><linearGradient id="linear-gradient-26" x1="840.63" y1="284.09" x2="835.39" y2="281.67" xlink:href="#linear-gradient-15"/><linearGradient id="linear-gradient-27" x1="872.27" y1="232.26" x2="861.15" y2="112.63" xlink:href="#linear-gradient-3"/><linearGradient id="linear-gradient-28" x1="735.94" y1="950.63" x2="697.21" y2="1135.92" gradientUnits="userSpaceOnUse"><stop offset="0" stop-color="#40457f"/><stop offset="1" stop-color="#1e2353"/></linearGradient><linearGradient id="GradientFill_15" x1="744.47" y1="1187.65" x2="729.93" y2="1208.52" gradientUnits="userSpaceOnUse"><stop offset="0" stop-color="#3773b9"/><stop offset="1" stop-color="#003c76"/></linearGradient><linearGradient id="linear-gradient-29" x1="770.47" y1="971.55" x2="638.39" y2="1151.69" xlink:href="#linear-gradient-28"/><linearGradient id="GradientFill_15-2" x1="669.99" y1="1230.19" x2="648" y2="1235.81" xlink:href="#GradientFill_15"/><linearGradient id="linear-gradient-30" x1="807.59" y1="536.71" x2="835.4" y2="496.96" xlink:href="#linear-gradient-15"/><linearGradient id="linear-gradient-31" x1="749.65" y1="636.07" x2="781.8" y2="696.39" gradientUnits="userSpaceOnUse"><stop offset="0" stop-color="#a77ef7"/><stop offset="1" stop-color="#5e65d6"/></linearGradient><linearGradient id="linear-gradient-32" x1="743.39" y1="733.78" x2="724.3" y2="901.05" xlink:href="#linear-gradient-31"/><linearGradient id="linear-gradient-33" x1="744.38" y1="685.08" x2="738.44" y2="700.01" xlink:href="#linear-gradient-15"/><linearGradient id="linear-gradient-34" x1="764.52" y1="643.26" x2="755.76" y2="660.09" gradientUnits="userSpaceOnUse"><stop offset="0" stop-color="#ffb89e"/><stop offset="1" stop-color="#ffa799"/></linearGradient><linearGradient id="linear-gradient-35" x1="745.95" y1="602.34" x2="707.25" y2="624.5" gradientUnits="userSpaceOnUse"><stop offset="0" stop-color="#8a4791"/><stop offset="1" stop-color="#562e65"/></linearGradient><linearGradient id="linear-gradient-36" x1="942.12" y1="702.23" x2="968.05" y2="667.97" xlink:href="#linear-gradient-15"/><linearGradient id="linear-gradient-37" x1="861.35" y1="714.95" x2="869.21" y2="874.3" xlink:href="#linear-gradient-31"/><linearGradient id="linear-gradient-38" x1="59.8" y1="132.54" x2="96.5" y2="70.81" xlink:href="#linear-gradient-2"/><linearGradient id="linear-gradient-39" x1="150.83" y1="1121.08" x2="178.35" y2="1050.04" xlink:href="#linear-gradient-3"/></defs><title>Asset 1</title><g class="cls-1"><g id="Layer_2" data-name="Layer 2"><g id="Layer_1-2" data-name="Layer 1"><path class="cls-2" d="M1010.57,333.23c.81.48,1.91.82,3.21,1.5,4.22,10.17,5.82,13.15,5,14.17-.68.82-.6.38-1,2.42-.49,2.79,9.28,14.86,10.79,18.69a13.9,13.9,0,0,1,.34,10.15,52.28,52.28,0,0,1-10.41,17.64c-3.87,4.36-8.15,7.14-11.87,6.3-4.58-1-3.8-5.14-3.11-9.2.24-1.45,3-4.66,2.79-6.09-1.22-8.15-7.18-15.25-11.55-22.3-3.76-3.49-10.07-7.16-13.57-11.2-5.06-5.84-6-12,.26-15.55,2-1.14,7-6.81,9.63-6.6C996,333.57,1004.32,329.58,1010.57,333.23Z"/><path class="cls-3" d="M841.49,309.9c-3.4,9.26-.75,17.47,6.69,21l.15.14.9.32a19.87,19.87,0,0,0,2.44.77c8.91,2.64,22.22,5,30.35,6.59,32.47,6.2,80.84,10.07,103.56,18.74,8.91-6.55,11.55-18.7,5.72-26C966.52,319.66,933,304.32,919,299.12a40.45,40.45,0,0,0-11.72-2c20.91-18.86,43.06-39.28,51.66-56.69,6.1-12.32,7.08-29.43,11.32-40.14-34.14,10-40.68-10.6-46.95-17.85-5.37,7.89-5.25,6.43-10.69,14.86-18.41,28.5-45.55,68.91-64,98.93C845.58,300.55,842.69,305.57,841.49,309.9Z"/><path class="cls-4" d="M952.89,313.62c-13.92-6.3-26.55-11.78-33.88-14.5a40.45,40.45,0,0,0-11.72-2c20.91-18.86,43.06-39.28,51.66-56.69,6.1-12.32,7.08-29.43,11.32-40.14-9.62,2.82-17,3.21-22.89,2.15l.92,6.67c-26.34,26.22-74.25,87.17-78.7,127,16.1,3.75,60.08,9.39,67.13,10.18,1.84-11.81,9.55-21.22,16.16-32.68Zm-24-123.38c-2.21-3-3.89-5.84-5.56-7.77-3.42,5-4.61,6.25-6.43,8.66Z"/><path class="cls-2" d="M948.64,465.4c4.79,6.65-8.14,40-11.29,47.05-2.78,6.2-1.89,10,4.68,10.1,5.17.07,13.39-7.26,18.4-12.06,9.4-9,9.94-18.17,12.66-22.08l3.2-1c2.34-1.33,9.27-10.36,9.64-13.78a75.09,75.09,0,0,0-3.56-9.3c-5.11-9.43-6.24-5.31-13-11.07C961.71,458.8,967.16,461,948.64,465.4Z"/><path class="cls-5" d="M887.33,351c14,27.15,48.9,88.37,61.22,115.59,10.87,2.29,21.88-4.06,22.84-12.6-7.93-26.09-20.8-69.06-27.17-82.75-4.2-9.05-12-21.13-19.13-30.34,20.73-29,53.56-74.64,63-101.39,12.89-36.4-1.91-57.17-21.78-68.61-7.07-4.06-14.68,2.46-18.26-1.9-8.49,16.56-16.15,39.06-21.11,59.32-6.92,28.24-39.93,88.17-42.42,108.32a21.73,21.73,0,0,0,2,11.4C886.75,349,887,350,887.33,351Z"/><path class="cls-6" d="M1443.35,1430.87,488.73,893.94c-12.05-5.49-29.75-10.66-41.57-3.44L416.92,909c-6.08,3.72-26.08,16-12.71,23.3,39.37,21.35,920.82,519.9,960.79,541.59,7.56,4.1,18.62,5.57,30.23,4.59s23.55-4.12,32.73-9.79l12.08-7.47c8.54-5.28,13.27-11,13.73-16.55S1450.75,1434.24,1443.35,1430.87Z"/><path class="cls-7" d="M598.24,19.07c-6.58-3.74-14.29-5.13-21.52-2.41L560.57,23c-5.86,30.35,831.85,1423.07,839.34,1430.79l14.42-5.44c9.46-3.73,14.43-13.59,15.82-23.16l121.73-830.95a.29.29,0,0,0,0-.09c2-14-2.22-28.52-9.91-40.2-4.13-6.29-9.57-12-16.26-15.68Z"/><path class="cls-8" d="M1509.8,544.4,582.32,25.21C564.77,15.49,548.07,24.83,545,46L423.24,876.93c-3.1,21.17,8.56,46.23,26.1,56l927.49,519.18c17.54,9.73,34.28.41,37.38-20.74L1536,600.37C1539.05,579.21,1527.34,554.13,1509.8,544.4Z"/><path class="cls-9" d="M1509.8,544.4,582.32,25.21C564.77,15.49,548.07,24.83,545,46l-4.1,28,990.93,554.7,4.15-28.35C1539.05,579.21,1527.34,554.13,1509.8,544.4Z"/><path class="cls-10" d="M576.55,45.9c7,1.61,12.44,10,12.07,18.7s-6.37,14.49-13.41,12.88-12.43-10-12.06-18.7S569.52,44.29,576.55,45.9Z"/><path class="cls-10" d="M608.58,64.29c7,1.61,12.44,10,12.07,18.71s-6.37,14.49-13.41,12.88-12.43-10-12.06-18.71S601.55,62.69,608.58,64.29Z"/><path class="cls-10" d="M643.24,84.5c7,1.61,12.43,10,12.07,18.71s-6.38,14.48-13.41,12.87-12.44-10-12.07-18.7S636.21,82.89,643.24,84.5Z"/><path class="cls-11" d="M1397,832.47,1230.39,741c-9.66-5.35-19.12-6.11-27-3-10.13,3.95-17.71,14.2-19.9,29.14L1164.57,902.6c-3.9,26.6,10.76,58.09,32.81,70.31L1364,1064.38c22.06,12.22,43.1.51,47-26.07l18.88-135.51C1433.76,876.22,1419.05,844.69,1397,832.47Z"/><path class="cls-12" d="M1153.11,355.92,1518.42,534.1l-9.68,9.88-35.06,245.07c-3.58,25.13-22.7,36.28-42.67,24.85l-342-195.5-29.69-66.25Z"/><path class="cls-13" d="M694.37,734,468.52,608.84,461,620.36,423.88,873l233.93,129.67c24.76,13.72,48.39.58,52.76-29.28L731.27,813C735.65,783.15,719.13,747.75,694.37,734Z"/><path class="cls-14" d="M684.38,789.42l-27,177.26,4.29.52,11.68-4.53c12.8-5,19.53-18.38,21.4-31.34l19.85-153.72a.6.6,0,0,0,0-.12c2.68-18.91-3-38.6-13.4-54.39-5.6-8.52-13-16.32-22-21.22L211.09,442.4c-8.9-5.06-19.34-6.94-29.11-3.26l-10.3,4c-5.18,1.94-6.78,3.5-6.75,3.82C169.79,492.3,691.2,743,684.38,789.42Z"/><path class="cls-15" d="M667.45,706.52,199.32,447c-10.4-5.77-20.59-6.58-29.1-3.26-10.91,4.24-19.07,15.28-21.43,31.36L129,628.85c-4.2,28.64,11.58,62.54,35.31,75.7L632.39,964c23.74,13.15,46.4.55,50.59-28.08l19.85-153.72C707,753.61,691.18,719.67,667.45,706.52Z"/><path class="cls-16" d="M661.89,754.35,338.82,576.65a8.09,8.09,0,0,0-6.95-.77c-2.61,1-4.56,3.65-5.13,7.5L325,594.16c-1,6.85,2.77,15,8.44,18.1L656.48,790c5.67,3.14,11.09.13,12.09-6.72l1.78-10.79c1-6.84-2.78-15-8.46-18.1ZM482,796.15c5.68,3.14,9.46,11.26,8.46,18.1L488.66,825c-1,6.85-6.42,9.86-12.1,6.71L314.08,744.29c-5.67-3.14-9.44-11.25-8.44-18.09l1.78-10.78c.57-3.85,2.52-6.49,5.12-7.51a8.12,8.12,0,0,1,7,.78L482,796.15Zm170.25,24.22c5.68,3.15,9.47,11.26,8.46,18.1l-1.78,10.79c-1,6.85-6.42,9.86-12.1,6.71L323.74,678.27c-5.67-3.14-9.44-11.25-8.44-18.09l1.78-10.78c.57-3.85,2.52-6.49,5.12-7.5a8.11,8.11,0,0,1,7,.77Z"/><path class="cls-16" d="M235.86,573.51c-15.27-8.47-31.48,3-31.31,25.06.07,11.44,4.92,23.22,12.58,30.6a29.76,29.76,0,0,0,6.19,4.64c15.25,8.45,31.38-3,31.26-25,0-11.47-4.86-23.3-12.48-30.66a30.62,30.62,0,0,0-6.24-4.68Zm-14.72,70.68a40.64,40.64,0,0,1-8.31-6.21c-10.32-9.91-16.78-25.77-16.93-41.17-.18-29.65,21.56-45.06,42.1-33.68a40.61,40.61,0,0,1,8.42,6.33c10.29,9.88,16.75,25.75,16.81,41.15.13,29.57-21.59,44.95-42.09,33.58ZM291.08,619c3.58,2,5.71,7.19,4.74,11.66L292.09,648c-1,4.43-4.63,6.42-8.21,4.44l-1.82-1a5.13,5.13,0,0,0-7.24,2,56.55,56.55,0,0,1-3.32,4.93c-1.86,2.44-2.17,6.34-.74,9.83l1,2.35c1.84,4.49.74,9.61-2.44,11.32l-12.57,6.8a5.19,5.19,0,0,1-5.1-.19,9.65,9.65,0,0,1-4.08-4.9l-1-2.3a9.62,9.62,0,0,0-4.05-4.85,5.88,5.88,0,0,0-3-.77c-1.78,0-3.59-.06-5.38-.23-2.87-.27-5.27,1.76-6,5.16l-.48,2.26c-1,4.43-4.63,6.41-8.21,4.44l-14-7.78c-3.58-2-5.71-7.18-4.76-11.61l.49-2.26a11.85,11.85,0,0,0-2.74-10c-1.51-1.66-2.92-3.37-4.31-5.14a8.78,8.78,0,0,0-2.68-2.39,5.16,5.16,0,0,0-5-.19l-1.65.85a5.19,5.19,0,0,1-5.1-.18,9.74,9.74,0,0,1-4.08-4.9l-7.28-17.81c-1.84-4.49-.74-9.61,2.43-11.32l1.66-.9c2.47-1.33,3.73-4.7,3.2-8.47q-.5-3.57-.72-7.17c-.23-3.7-2.19-7.22-4.92-8.73l-1.83-1c-3.58-2-5.71-7.18-4.76-11.61l3.74-17.37c1-4.48,4.64-6.47,8.21-4.48l1.83,1a5.11,5.11,0,0,0,7.23-2,53.09,53.09,0,0,1,3.33-4.93c1.85-2.39,2.16-6.3.73-9.79l-1-2.35c-1.82-4.54-.74-9.61,2.44-11.37l12.58-6.8a5.24,5.24,0,0,1,5.1.18,9.81,9.81,0,0,1,4.08,4.91l1,2.35a9.62,9.62,0,0,0,4,4.85,5.85,5.85,0,0,0,3,.78,44,44,0,0,1,5.38.17c2.86.33,5.26-1.71,6-5.1l.49-2.27c1-4.48,4.63-6.46,8.21-4.48l14,7.78c3.58,2,5.71,7.18,4.74,11.65l-.49,2.27a11.68,11.68,0,0,0,2.72,9.93q2.26,2.49,4.34,5.22a8.68,8.68,0,0,0,2.68,2.37,5.11,5.11,0,0,0,5,.19l1.66-.89a5.19,5.19,0,0,1,5.1.18,9.77,9.77,0,0,1,4.08,4.91l7.28,17.81c1.83,4.53.74,9.6-2.44,11.36l-1.66.9c-2.47,1.33-3.73,4.71-3.19,8.42q.5,3.58.72,7.17c.23,3.71,2.18,7.22,4.93,8.74Z"/><path class="cls-17" d="M641.56,147.83,540.53,99,500.65,348.52l-5.13,35.05,105.05,56.69c18.25,10.11,35.67.42,38.89-21.59l29.3-212.61C672,184,659.81,158,641.56,147.83Z"/><path class="cls-14" d="M629.24,207.17l-31.48,203.4,3.29.4,9-3.49c9.85-3.88,15-14.13,16.46-24.1l26-185.29a.31.31,0,0,0,0-.09c2.07-14.54-2.3-29.68-10.3-41.83-4.3-6.54-10-12.54-16.92-16.31l-193.21-105c-6.85-3.89-14.87-5.34-22.39-2.5l-7.92,3.09c-4,1.5-5.21,2.7-5.19,2.94C400.31,73.24,634.48,171.44,629.24,207.17Z"/><path class="cls-18" d="M616.22,143.42,423,38.43c-8-4.43-15.83-5.06-22.38-2.51C392.25,39.19,386,47.67,384.17,60l-26,185.29c-3.23,22,8.91,48.09,27.16,58.21l193.21,105c18.25,10.12,35.67.43,38.89-21.58l26-185.3C646.66,179.64,634.47,153.54,616.22,143.42Z"/><path class="cls-19" d="M580.43,359,386.33,254.76c-4.48-2.4-8.76.07-9.63,5.63-.84,5.37,2.07,11.7,6.55,14.11L577.34,378.68c4.48,2.41,8.84,0,9.71-5.59.84-5.36-2.15-11.74-6.62-14.14Zm8.68-56.41c4.47,2.41,7.45,8.79,6.62,14.14-.87,5.56-5.23,8-9.71,5.6L391.92,218.09c-4.48-2.41-7.39-8.73-6.54-14.11.87-5.55,5.14-8,9.62-5.62L589.11,302.54Zm20-127.9L415,70.45c-4.47-2.41-8.75.07-9.59,5.44l-2.16,13.8c-.83,5.37,2.08,11.7,6.55,14.1L603.87,208c4.47,2.4,8.83,0,9.68-5.4l2.14-13.8c.85-5.36-2.15-11.73-6.61-14.14Zm-11.24,72c4.47,2.4,7.47,8.68,6.64,14-.89,5.66-5.23,8-9.7,5.59L400.67,162c-4.48-2.4-7.39-8.64-6.56-14,.89-5.65,5.16-8,9.63-5.64Z"/><path class="cls-14" d="M1388.21,895.58l-23,141.66,3.58.43,9.77-3.79c10.71-4.22,16.32-15.37,17.89-26.2l17-122s0-.07,0-.1c2.24-15.81-2.51-32.27-11.2-45.48-4.68-7.12-10.84-13.64-18.4-17.74l-150-82.33c-7.45-4.23-16.18-5.81-24.35-2.72L1201,740.7c-4.33,1.63-5.67,2.93-5.65,3.2C1199.38,781.78,1393.91,856.73,1388.21,895.58Z"/><path class="cls-20" d="M1374.05,826.27l-150-82.34c-8.7-4.82-17.22-5.5-24.33-2.73-9.12,3.55-16,12.78-17.92,26.23l-17,122c-3.51,23.94,9.69,52.29,29.53,63.29l150,82.34c19.85,11,38.79.46,42.29-23.47l17-122C1407.14,865.65,1393.89,837.27,1374.05,826.27Z"/><path class="cls-21" d="M1308.71,834.72a11.93,11.93,0,0,1,1.24,7,45.53,45.53,0,0,1-2.72,8.93l-32,88.76c-1,3-2,5.23-2.66,6.85a5.48,5.48,0,0,1-2.89,3.1c-1.11.49-2.64.15-4.62-1.07-4.79-3-6.91-7.16-6.3-12.24a62,62,0,0,1,2.64-9.26l31.87-88.8c1.63-4.72,3.08-7.77,4.29-9.18s3.17-1.26,5.86.41a13.32,13.32,0,0,1,5.25,5.52Zm8.53,23.06-2.92,24.69,47.22,54.76-52.93-6.7-2.94,24.79,76.16,5.95,2.49-21-67.08-82.48ZM1184.13,839l67.09,82.57,2.94-24.79-47-55.12,52.69,7.16,3-25-76.17-6.08Z"/><path class="cls-20" d="M799.32,840.3c2.7-18.44,16.74-26.59,31.36-18.16l217.39,122.58c14.6,8.42,24.28,30.23,21.59,48.66l-28.92,196.78c-2.7,18.44-16.76,26.58-31.37,18.16L792,1085.74c-14.62-8.42-24.28-30.23-21.59-48.66Z"/><polygon class="cls-22" points="825.77 1040.88 901.6 935.85 916.3 1047.23 953.25 1007.07 975 1126.18 825.77 1040.88"/><path class="cls-23" d="M950.69,940.51c8.11,1.65,14.21,11.14,13.64,21.2s-7.63,16.87-15.73,15.22-14.22-11.14-13.64-21.2S942.58,938.85,950.69,940.51Z"/><path class="cls-24" d="M817,868.46c2.24-15.32,13.91-22.09,26.06-15.09l180.62,101.85c12.14,7,20.18,25.12,17.94,40.44l-24,163.5c-2.24,15.31-13.92,22.08-26.06,15.09L810.89,1072.4c-12.15-7-20.18-25.12-17.94-40.44Z"/><path class="cls-20" d="M1092.69,1010.69c2.7-18.44,16.74-26.59,31.36-18.16l217.39,122.58c14.61,8.42,24.28,30.23,21.59,48.66l-28.92,196.78c-2.7,18.44-16.75,26.58-31.37,18.16l-217.38-122.58c-14.62-8.42-24.28-30.23-21.59-48.66Z"/><polygon class="cls-25" points="1119.14 1211.27 1194.97 1106.24 1209.68 1217.62 1246.62 1177.46 1268.37 1296.57 1119.14 1211.27"/><path class="cls-23" d="M1244.06,1110.9c8.11,1.65,14.21,11.14,13.64,21.2s-7.63,16.87-15.73,15.22-14.22-11.15-13.64-21.2S1236,1109.25,1244.06,1110.9Z"/><path class="cls-26" d="M1110.35,1038.85c2.24-15.32,13.91-22.09,26.06-15.09L1317,1125.61c12.14,7,20.18,25.12,17.94,40.44l-24,163.5c-2.24,15.31-13.92,22.08-26.06,15.09l-180.62-101.85c-12.15-7-20.18-25.12-17.94-40.44Z"/><path class="cls-27" d="M764,21.67C744.67,33,753.94,59.27,771.51,87c25,39.36-35.42,83.65,46.64,106.06-8.55-24,27-32.8,44.48-65.6,20.16-37.84,9-75.8-16.92-108.12C824.62-7,786-6.65,764,21.67Z"/><path class="cls-28" d="M802.32,270.35l4.74,17.83c1.48,3.83,2.37,4.86,7.86,2.38,3-1.46,2.06-7.7,1.23-12.26a27,27,0,0,1,.2-11.26,9.25,9.25,0,0,1,3.45-4.69c3.28-2.64,7.11-4.4,4.75-12.76-1.23-4.38-.93-7.63-1-12.17l-11.43-.75c.26,10.2-4.27,17.08-9,25.67C800.82,266.49,801.32,265.71,802.32,270.35Z"/><path class="cls-29" d="M843,157.12l-.09-.57a9.38,9.38,0,0,0-.36-2.46c-2.9-19.4-8.81-52.09-13.41-69.14-8-29.77-33.51-19.48-33.24-1.71.25,16.81,15.88,53.21,19.48,69-1.28,11.49-6.07,68.88-4.41,78.9.31,1.91,1.15,3.16,1.06,5.26-.07,1.59-.5,2.23-1,4.14,4.51.6,9,1.24,13.43,2.28a29.53,29.53,0,0,1,.67-4.47c.77-2.15,2.75-3.26,3.65-5.09,4.39-9,11.65-56.16,13.65-71.52A19.46,19.46,0,0,0,843,157.12Z"/><path class="cls-30" d="M839.71,175.27c1.71-4.11,3.63-17,3.62-22.66-.05-11.82-4.51-21.6-5.9-29.11L796.12,82.38c.26,7.7,9.25,28.21,12.93,43.36C814.8,149.37,827.31,169.72,839.71,175.27Z"/><path class="cls-31" d="M967.51,178.08c-5.82,19.25-33.17,34.43-60.58,28.4-6.54-7.28-8.48-5-14.46-10.88C887,190.26,880.3,183,870.89,173.42c-5.23-8.21-25.85-11.57-34.95-15.14-10.28-4-19.4-12.43-23.65-28.76-2.06-7.92-11-32.16-14.26-40.24-9.33-23.35,10.9-32.08,24.59-23.43,8.77,3.66,28.1,8.25,37.65,10A159.34,159.34,0,0,0,877,78.36c11.37,1.1,23.72,9.4,32.55,16.43C933.25,113.69,965.43,151.67,967.51,178.08Z"/><path class="cls-32" d="M830.15,56.43a58,58,0,0,0,16.29,27.48c-2.9,10.37-22.69,17.84-29,10.84-.49-1.39-1.15-4.5-1.84-5.5-1-3-2.07-5.71-3-7.84Z"/><path class="cls-33" d="M772.68,42.57c1,7.88,3.48,14.52,10.28,21.3a10,10,0,0,1,2.86,4.76c2.57,9.42,4.6,11.34,10.64,15.64,5.87,4.19,8.07,7.09,11.41,7.44s6.62-1.51,9.14-3.31c5.15-3.69,10.93-13.79,13.65-20.46,2-4.94.76-6.19-.51-10.88,1.48-8.63-4.48-9.17-6.47-8.11-5.7,3.06-1.88,9.38-3.77,13C799.87,66.39,779.14,48.42,772.68,42.57Z"/><path class="cls-34" d="M772.68,42.57C783.81,61.1,808.32,65.78,819.91,62,799.87,66.39,779.14,48.42,772.68,42.57Z"/><path class="cls-30" d="M902.25,201.72l-.5.1c-3-2-5.23-2.25-9.28-6.22C887,190.26,880.3,183,870.89,173.42c-2.66-4.18-9.33-7.11-16.42-9.44,1.12-19.17.62-63,6.91-68.69C870.05,87.43,882,82.2,892,92.44,910.76,111.76,892,183.29,902.25,201.72Z"/><polygon class="cls-9" points="875.72 227.48 863.81 182.65 872.04 175.31 947.24 217.51 940.24 225.36 907.58 247.21 875.72 227.48"/><path class="cls-14" d="M863.84,182.77l-5.48-17.5,93.84,52.09-12.09,8.09Z"/><path class="cls-35" d="M710.18,288.84c4.87-35.92,32.12-51.38,60.86-34.47L1067.91,427.7c28.71,16.9,48.08,59.79,43.22,95.71L1065.88,865.8c-4.87,35.91-32.15,51.36-60.87,34.47L708.15,726.93c-28.75-16.91-48.09-59.79-43.22-95.7Z"/><path class="cls-14" d="M720.71,286.87c.52-3.88,1.29-21.23,5.95-24.76,6.28-4.76,17.75-11.68,21.14-12.59,8.84-2.36,19-.81,29.46,5.32l277.4,160.75c26.68,15.71,44.69,55.56,40.16,88.94l-42,318.15c-1.58,11.65-5.7,21-11.53,27.53-4,4.43-13.17,10.63-20.86,14.6-7.94,4.11-19.13-7.14-24.17-10.11L718.83,694c-26.72-15.72-44.69-55.56-40.17-88.93Z"/><path class="cls-20" d="M710.94,293.69c4.53-33.38,29.85-47.75,56.56-32l275.85,161.06c26.68,15.7,44.68,55.56,40.16,88.93l-42,318.15c-4.52,33.38-29.87,47.73-56.56,32L709.06,700.77c-26.72-15.72-44.69-55.56-40.16-88.93Z"/><path class="cls-36" d="M710.94,293.69c4.53-33.38,29.85-47.75,56.56-32l275.85,161.06c26.68,15.7,44.68,55.56,40.16,88.93l-4.31,31.61L706.58,325.7Z"/><path class="cls-20" d="M755.29,294.94c6.08,1.44,10.72,8.72,10.37,16.26s-5.57,12.48-11.64,11S743.3,313.52,743.65,306,749.22,293.5,755.29,294.94Z"/><path class="cls-20" d="M787.72,315.15c6.08,1.44,10.72,8.73,10.37,16.26s-5.57,12.49-11.64,11-10.72-8.71-10.37-16.25S781.64,313.71,787.72,315.15Z"/><path class="cls-20" d="M820.15,335.37c6.08,1.44,10.72,8.72,10.37,16.26s-5.57,12.48-11.64,11-10.72-8.72-10.37-16.26S814.07,333.93,820.15,335.37Z"/><path class="cls-37" d="M769.46,388.91c28.16,6.67,49.67,40.41,48,75.35s-25.78,57.86-53.94,51.18-49.68-40.42-48-75.36S741.3,382.23,769.46,388.91Z"/><path class="cls-38" d="M768.1,418.06c15.18,3.6,26.78,21.79,25.9,40.63s-13.9,31.19-29.08,27.59S738.14,464.49,739,445.65,752.91,414.46,768.1,418.06Z"/><path class="cls-39" d="M834.43,456.7c1-7.42,6.63-10.53,12.56-6.92l180.3,103.93c5.92,3.6,9.91,12.55,8.9,20l-2,14.68c-1,7.43-6.63,10.53-12.55,6.93L841.39,491.36c-5.93-3.6-9.91-12.55-8.91-20Z"/><path class="cls-39" d="M827.26,510.71c.6-4.38,3.92-6.22,7.41-4.09L941.15,568c3.49,2.13,5.85,7.41,5.25,11.8l-1.15,8.67c-.59,4.38-3.91,6.21-7.41,4.09L831.37,531.18c-3.5-2.13-5.85-7.42-5.26-11.8Z"/><path class="cls-39" d="M706.92,524.48c.73-5.4,4.82-7.67,9.14-5l311.38,178.64c4.31,2.62,7.22,9.14,6.48,14.55l-1,7.08c-.74,5.4-4.83,7.67-9.15,5L712.43,546.11c-4.32-2.62-7.22-9.14-6.48-14.55Z"/><path class="cls-39" d="M700.41,576.88c.73-5.41,4.82-7.67,9.14-5l311.38,178.65c4.31,2.62,7.22,9.14,6.48,14.55l-1,7.07c-.74,5.41-4.83,7.67-9.15,5L705.92,598.51c-4.32-2.63-7.22-9.14-6.48-14.55Z"/><path class="cls-39" d="M693.59,626.79c.73-5.4,4.82-7.67,9.14-5l311.38,178.64c4.31,2.62,7.22,9.14,6.48,14.55l-1,7.08c-.74,5.4-4.83,7.67-9.15,5L699.1,648.42c-4.32-2.62-7.22-9.14-6.49-14.55Z"/><path class="cls-14" d="M1095.91,257.9c1-6.92-3.62-12.26-.61-16.85,3.24-5,14.29-8.5,19.06-10.23,6.78-2.44,14.75-1.64,22.88,3l331.2,189.36c19.34,11.06,32.23,39.82,28.76,64.17L1460,747.21c-1.69,11.93-7,20.6-14.26,25-4.44,2.71-16.57,7.9-22.07,7.24-3.87-.47-.93-5.89-5-8.22L1087.5,581.92c-19.37-11.08-32.24-39.82-28.77-64.17Z"/><path class="cls-40" d="M1086,261.86c3.46-24.35,22-35.15,41.33-24.08l331.19,189.36c19.34,11.07,32.23,39.83,28.77,64.17L1450.1,751.17c-3.47,24.34-22,35.13-41.33,24.07l-331.2-189.36c-19.36-11.08-32.23-39.82-28.76-64.17Z"/><path class="cls-41" d="M1060.27,533.62c.3-2.12,1.9-3,3.58-2l367.32,210.62a6.06,6.06,0,0,1,2.49,5.66l-1,6.41c-.3,2.11-1.91,3-3.58,2L1061.78,545.68a6.06,6.06,0,0,1-2.49-5.65Z"/><path class="cls-42" d="M1060.45,533.82c.29-2,1.83-2.91,3.45-1.94l148.16,84.93a5.87,5.87,0,0,1,2.4,5.46l-.94,6.18c-.29,2-1.84,2.91-3.45,1.94l-148.16-84.93a5.85,5.85,0,0,1-2.4-5.46Z"/><path class="cls-43" d="M1205.66,408.79c.82-5.79,5.22-8.36,9.83-5.73l102,58.32c4.6,2.64,7.67,9.48,6.85,15.27l-13.76,97c-.83,5.79-5.24,8.36-9.84,5.73l-102-58.32c-4.6-2.64-7.67-9.48-6.84-15.27Z"/><path class="cls-44" d="M1263.82,451c-17.65-10.1-34.5-.26-37.66,21.94s8.56,48.41,26.21,58.5,34.51.26,37.67-22S1281.46,461.1,1263.82,451Z"/><polygon class="cls-20" points="1247.49 461.79 1241.92 501.98 1275.97 502.9 1247.49 461.79"/><path class="cls-45" d="M850.89,256.29c-2.89,4.83-1.36,15.3-2.31,20.28a80.94,80.94,0,0,1-4.42,14.54c-.61,1.29-19.82,18.34-20.93,17.48-2.53-1.95-4.18-15.42-.86-19.33s6.14-7.74,6.7-10.95.38-13.86,1.77-15.5c3.15-3.72,6.45-4.9,7.85-9.55Z"/><path class="cls-46" d="M888.26,191.12a30,30,0,0,0,.72-3.37c5-20.69,10.08-56.08,9.43-76.58-.5-15.65-8.12-28.91-26.49-23.81-5.64,1.57-12.17,5.86-13,13.3-1,8.9.33,23.67,1.17,38.77.67,12.07.61,33.83,1.07,42.65-.08.27-.15.55-.23.83-5.87,11.71-19.57,49.94-22.44,62.34-.47,2.07,0,4.3-.05,5.74a10.53,10.53,0,0,1-1.48,4.6,27.85,27.85,0,0,0,12.59,6.49,34.73,34.73,0,0,1,2.57-4.54c.8-1.21,4.48-2.36,5.91-4.08,7.61-9.12,27.7-50.81,30.15-61.9C888.21,191.41,888.23,191.27,888.26,191.12Z"/><path class="cls-6" d="M594.83,1256.53l166.75-95c18.18-8.3,44.19-14.91,62.72-5.27,16.87,8.78,44.67,26.75,57,33.76,9.34,5.33,41.75,24.74,21.56,35.72-59.38,32.29-118.15,68.61-178.45,101.41-11.4,6.2-28.08,8.44-45.6,7s-35.32-6.53-49.39-14.71l-29.57-17.21c-13.08-7.62-20-16.62-20.7-25C578.44,1269.17,583.67,1261.63,594.83,1256.53Z"/><path class="cls-20" d="M656.27,1251.5c3.27-.07,14.27-10.41,24.69-5.19,12.52,6.27,36.29.72,48.28,3.6,2.14.51,6.31-1.06,7.14.4,2.58,4.6,5.08,11.47-1.27,16-4.68,3.31-14.69,7.69-21.26,10-7,2.47-18.89,6.36-26.89,7.61-8.85,1.39-12.89,2-16.21,4.52-4.73,2.38-9.63,3.41-12.36,3-5.84-.93-12.65-4.35-15.76-11-1-2.13-1-11.43.12-17.46.9-4.75,3.5-10.17,5.57-15.23Z"/><path class="cls-47" d="M681.87,1229.26c-4,9.5-2.74,24.21-12.13,29.32-6.27,3.41-16.09,3.45-20.37-6.3-2.39-5.44.78-14.73.08-26.66Z"/><path class="cls-48" d="M684.48,1244c7.19,2.09,27,.7,39.6,1.71,5.39.44,10.23.4,12.75,5.3,2.32,4.5,1.11,8.36-4.15,12.08-4.68,3.31-12.61,7.08-19.17,9.41-7,2.47-18.9,6.36-26.89,7.61-8.86,1.38-12.9,2-16.21,4.51-4.74,2.39-9.64,3.41-12.37,3a21.79,21.79,0,0,1-15.76-11.7c-1-2.13-1-10.73.12-16.76a32.07,32.07,0,0,1,.92-3.55c1-9.45,4.11-13.27,7-11.65,4,2.22,5.54,6.2,7.08,9.47a9.26,9.26,0,0,0,5.47,5.22c4.81,1.51,9.2-1.17,12.05-5.3a34.09,34.09,0,0,0,3.3-9.57c0-.32,0-.64,0-1,1-8.26,5-7.54,4.35-5.8S682.3,1242.3,684.48,1244Z"/><path class="cls-20" d="M734.32,1249.59c-.09,3.2,4.8,3.5,3.38,9.11,2.36-2.31-.93-8.93-2.38-9.93C734.73,1248.36,734.22,1248.19,734.32,1249.59Z"/><path class="cls-20" d="M738.07,1218.77c3-1.19,9.82-14.69,21.4-13.37,4.67.53,12.18-.69,19.81-2.85,12.16-3.46,29.1-14.33,32-12.55,6.3,3.87,6.8,10.94,2.38,17.35-3.25,4.72-9.4,11-14.77,15.43-5.69,4.72-13.77,11.93-20.84,15.86-6.69,3.71-8.91,3.38-13.67,9.81-3.63,3.87-7.87,6.17-10.59,6.7-6.95,1.36-17-3.1-20.68-7.76-2.31-7.48-6.32-14.56-3.75-25.78Z"/><path class="cls-47" d="M754.13,1186.92c-.18,10.3,6.36,23.53-.49,31.73-4.58,5.48-13.7,9.12-21.27,1.63-4.22-4.18-4.69-14-9.73-24.82Z"/><path class="cls-48" d="M776.16,1199.47l2.08-.57c12.16-3.45,28.41-11.83,31.29-10.05,6.31,3.87,7.5,8.45,3.08,14.86-3.25,4.72-9.4,11-14.77,15.43-5.69,4.72-13.77,11.93-20.84,15.86-6.69,3.71-8.91,3.38-13.67,9.81-3.63,3.87-7.87,6.17-10.59,6.7-7,1.36-17.35-3.15-21-7.81-1.72-5.56-4.07-10.86-4.26-17.86-1-9.16-.39-13.82,3.6-13.7,7.41.21,10.46,4.12,13.53,6,6.59,4.11,11-1.2,12.08-7.77a38.28,38.28,0,0,0-.6-8.69c-.1-.3-.22-.6-.34-.9-2.16-8,1.84-8.83,1.91-7a6.88,6.88,0,0,0,6.12,7C767.81,1201.44,772.91,1199.75,776.16,1199.47Z"/><path class="cls-20" d="M808.79,1189.87c1.29,2.93,5.83,1.09,7,6.76,1.13-3.09-4.68-7.65-6.43-7.93C808.62,1188.58,808.09,1188.65,808.79,1189.87Z"/><path class="cls-49" d="M747.13,908.81c2.66,29.84,17.62,125.13,13.46,151.29-6.26,39.34-4.47,86.87-4.4,128.62-1.06,17.55-25.18,26.71-32.2,15.57-5.64-37.31-13.66-70-16.92-90.73-3.65-23.22-2.44-51.43,3.45-66.69-2.42-16.66-13.79-59.66-23.28-89.46-3.42-10.75-22.84-45.49-2.74-80Z"/><path class="cls-50" d="M756.58,1177.52c0,3.1-.1,7.82-.09,10.85-1.06,17.55-25.48,27.06-32.5,15.92-.42-2.75-1-5.48-1.46-8.17C732,1206.29,750.48,1193.07,756.58,1177.52Z"/><path class="cls-4" d="M761.23,1042.35c-7.86,39.45-30.11,92.15-42.26,131.82-6.32-34-22.14-91.87-8.45-127.3-1.38-9.49-5.66-27.52-10.84-46.79,10.52-20,.46-35.89,5.43-64,27.87-4.86-14.19-38.88,44.79-3.05C755.17,975.37,760.13,1002,761.23,1042.35Z"/><path class="cls-51" d="M745.2,1079.77c-16.07,36.39-45.74,107.79-61.51,152.46-8.17,11.87-37.27,10.63-37.21-.44,6.42-37.34,14-94.94,27.38-127.7,4.1-10,19.24-34.14,24.7-41.3,4.24-16.48,9.56-61,13.66-85.09-3.68-19.94-19.76-53.27,11.13-82.23,12.47,8.86,51,14.41,68.48,4.53C794.65,978.74,775.32,1011.58,745.2,1079.77Z"/><path class="cls-52" d="M687,1224.45c-.71,2-2.11,5.89-2.77,7.76-8.4,12.21-38.36,10.94-38.3-.45q.48-2.77,1-5.68C654,1233.36,675.6,1233.46,687,1224.45Z"/><path class="cls-53" d="M843.77,472.46c-1.14,2.41-2.24,4.85-3.43,7.23l-4.92,9.84c-1-4.82-4.9-6.67-7.86-4.24a8.46,8.46,0,0,0-2.39,3.22c-.47-1.32-4.2-4.28-9.23,2.88-3.14-.35-4.8,1-6.13,3.52a41.06,41.06,0,0,0-2.11,5.16,20.74,20.74,0,0,0-1.46,7c0,4.74.23,9.88.1,15.55-.15,6.15-7.12,13.93-10.91,18.42l22.83,7.24c3.49-4.39,5.37-7.55,8.88-11.12s8.11-4.06,11.53-6.86c1.91-1.57,3-3.64,6.26-8.25,2.69-3.81,4.16-7.93,6.73-12.1s2.35-3.36,2.6-8.21c.2-3.74,1.41-7.43,1.72-9.69-4.69-2.34-8.39,3.45-8.36,9.09-2.68,1.51-4.44,5.21-5,6.86-3.73-4.87-1.51-6.91,0-13.17a63,63,0,0,0,5.37-12.57c.73-1.93,1.45-3.92,2.24-6.08,1.06-3.51-.3-6-1.36-6.69C847.94,468.91,845.68,469.17,843.77,472.46Z"/><path class="cls-54" d="M853.28,491.55c-3.33.48-5.68,5.07-5.66,9.58-2.51,1.41-4.21,4.75-4.92,6.52,1.36-1.75,4.85-5.52,6-6,.35-4.34,1.9-7.89,4.58-10.13Zm-17.43-2.87-.43.85a8.58,8.58,0,0,0-1.24-3,12.3,12.3,0,0,1-3.25,7.24,8.2,8.2,0,0,0,4.92-5.07Zm-10.71-.25a2.85,2.85,0,0,0-1.21-1.22,19.27,19.27,0,0,1-2.56,6.54,11,11,0,0,0,3.77-5.32Zm-9.1,2.81-.1.15a8.12,8.12,0,0,0-1.46,0,14.9,14.9,0,0,1-2.67,7.32C814.22,496.31,815.45,494.7,816,491.24Z"/><path class="cls-55" d="M757.57,604.34c11.49-20,20.48-45.09,36.54-65.43,1.34-1.69,4.48-3,5.64-4.77q2.5-3.89,5-7.63c7.53.14,16.77,4,23.11,10.42q-1.35,4-2.66,8c-1,3.09.93,9.71,0,12.8a513.9,513.9,0,0,1-28.14,76.68C781.18,655,710.43,786.79,673.44,739c-3.33-17,1.18-31.17,9.74-45,4.74-7.62,11.94-14.27,16.79-19.29C711.6,662.64,740.11,622.35,757.57,604.34Z"/><path class="cls-56" d="M678.85,801.9c2.59,23.35-4.43,46.31,2.72,67.62.32,2.2.52,10.84.9,13.19,4.71,27.61,63.11,55.55,111.81,29.06.27-3.42,0-7,.23-13.34-.9-5.92,1.65-12.27,1.64-15.88-.07-15-4.75-22.71-2.51-39.43,4.57-34,23.41-66.71,13-93.47-2.24-5.74-6.16-8.53-10.6-12.09-11.51-9.25-71-39.56-89.09-41.7C654.54,689.07,676,776.58,678.85,801.9Z"/><path class="cls-57" d="M798.92,818.46c6.76-25,15.58-48.59,7.71-68.81-2.24-5.74-6.16-8.53-10.6-12.09-11.51-9.25-10,15.62-28,13.48C764.52,784.27,781,814.49,798.92,818.46Z"/><path class="cls-33" d="M762.18,685.41a128.58,128.58,0,0,0,1.33,28.67c-17.07-.56-40.78-5-43.37-17.73.12-1.52.23-3.06.31-4.58a6.72,6.72,0,0,0-.7-.55c-6.12-4.07-16.24-7.08-22.75-14.52-10.39-11.89-15.92-27.87-7.76-43.94,14.9-29.36,50.94-29.86,71-6.12,3.92,4.63,1,9.44,3.28,13.91.44.88,2,1.27,3.9,2.8,2.57,2.12,10.06,20.48,9.86,30.06-.07,3.85-8.94,9.29-12.87,11.42A10.5,10.5,0,0,1,762.18,685.41Z"/><path class="cls-58" d="M762.18,685.41a128.58,128.58,0,0,0,1.33,28.67c-17.07-.56-40.78-5-43.37-17.73.12-1.52.23-3.06.31-4.58-.23-.21-.49-.35-.7-.55-13-12.14,4.38-26.05,26.3-14.06A17,17,0,0,0,762.18,685.41Z"/><path class="cls-59" d="M777.3,673.41c-.07,1.68-7.06,4.22-10,4.62,2-18.14-15.27-20.91-12.67-38.61,1.57-10.64-9.38-14.49-5.08-22.28a49.64,49.64,0,0,1,10.69,9.5c3.92,4.63,1,9.44,3.28,13.91.44.88,2,1.27,3.9,2.8C770,645.47,777.75,663.83,777.3,673.41Z"/><path class="cls-60" d="M753.79,666c-.34-4.06-2-4.84-3.34-3.76s-2.78,4.7-2.37,8.87c.67,6.74,6.91,12.78,11.22,7.33-4.71,2.49-6.93-3.54-7.13-7.8C752,667.79,752.77,665.36,753.79,666Z"/><path class="cls-61" d="M752.29,668.63c2.5,1.9,3.66,3.18,3.62,4.24,0,.75-.65,1.86-2.85,1.08A9.58,9.58,0,0,1,752.29,668.63Z"/><path class="cls-62" d="M719.93,695.9c-5,1.56-9.76,6.75-8.84,10.08,5,20.54,42.68,25.13,66.09,20.18.28-.06-8.77-12-13.25-13.48C749.2,714.13,724.48,708,719.93,695.9Z"/><path class="cls-63" d="M718.12,694.63c-6.24-6.66-16.8-9.85-23.58-17.6s-14-19.37-9.54-31.42c-7.87-24.76,19-44.39,41.7-48.85,16.21-3.2,25.91,14.19,18.86,26,6.08,6.8,5.87,15.79,5.45,18.1-1.29,7.06-1.11,7.95,1.15,13.25,1.78,4.18,6.23,14.27-1.82,7.88-5.21-4.13-8.85,5-7.08,11.31a29,29,0,0,1,1.13,12.21C742.87,698.72,721.6,698.33,718.12,694.63Z"/><path class="cls-64" d="M692.52,634.4c-5.37-24,26.15-36.12,38.49-36.4s22.26,20.25,7.46,27.16C728.38,629.88,708.4,620.66,692.52,634.4Z"/><path class="cls-65" d="M942.48,668.36a16.27,16.27,0,0,0-1,4.84,39.08,39.08,0,0,0-2.35,7.36c-.76,3.88-.48,6.94-.59,12.1a26.48,26.48,0,0,0,1.05,7.44c-3,5.92-7.79,9.56-12.24,14.45l14.42,11c6.08-4,10.83-8.22,16.06-11.7,4.25-1.68,5.75-2.64,7-4,3.34-3.48,13.17-13.82,13.73-17.89.63-4.51-.58-14.94-1.6-20.67-2.6-14.61-8.17-30-9.12-23.18-1.39,1.62-.26,14.82-1.13,16.78-3.42,3.93-5,5.54-9.32,10.22-2.65,1.51-4.4,3.09-5.68,3.43-1.47.4-2.28-.62-2.33-1.92s.87-4,1.63-7.79c0-6.25-1.56-9.8-4.9-9.47a3.3,3.3,0,0,0-3.14,2.92C942.62,663.78,942.72,665.8,942.48,668.36Z"/><path class="cls-66" d="M797.2,729.65c19.85,3.06,58.13,24.89,84.56,36.73,14.73-21,34.07-46.17,46-54.64,1.38-1,4.87-2.94,5.94-4.25,1.73-2.13,3.42-4.3,5-6.55,7.45,1,18.25,10.34,18.1,14.74q-1.8,3.3-3.66,6.86c-.85,1.62-.54,5.18-1,7-4,14.71-26.35,48.67-36.75,63.82-6,8.76-8.12,13.89-12.19,16.51-6.53,4.2-15.29,1.9-32.17-2.34-14.2-3.57-60.07-11.91-81.17-23-14.88-7.85-26.29-22-20.38-38.27C773.27,735.77,784.44,727.68,797.2,729.65Z"/><path class="cls-67" d="M1343.24,123.49c-13-7.19-26.7,2.5-26.56,21.26.06,9.7,4.18,19.69,10.67,26a25.47,25.47,0,0,0,5.25,3.93c12.94,7.17,26.62-2.51,26.53-21.18,0-9.72-4.13-19.76-10.59-26a25.35,25.35,0,0,0-5.3-4Zm-12.48,60a33.87,33.87,0,0,1-7-5.27c-8.76-8.41-14.24-21.86-14.37-34.93-.15-25.15,18.3-38.22,35.72-28.57a34.54,34.54,0,0,1,7.15,5.37c8.72,8.39,14.2,21.85,14.26,34.91.1,25.09-18.32,38.13-35.71,28.49Zm59.33-21.37c3,1.68,4.84,6.09,4,9.89l-3.17,14.74c-.81,3.75-3.92,5.44-7,3.76l-1.55-.86a4.34,4.34,0,0,0-6.13,1.69,44.88,44.88,0,0,1-2.82,4.18c-1.58,2.07-1.84,5.39-.63,8.34l.81,2c1.56,3.81.63,8.15-2.06,9.61l-10.67,5.76a4.39,4.39,0,0,1-4.32-.16,8.27,8.27,0,0,1-3.47-4.16l-.82-2a8.18,8.18,0,0,0-3.43-4.11,5.07,5.07,0,0,0-2.56-.66c-1.51,0-3-.05-4.56-.19-2.44-.23-4.47,1.49-5.09,4.37l-.41,1.93c-.81,3.75-3.93,5.43-7,3.76l-11.89-6.6c-3-1.68-4.84-6.09-4-9.85l.41-1.92a10.05,10.05,0,0,0-2.32-8.49c-1.28-1.41-2.48-2.86-3.67-4.36a7.33,7.33,0,0,0-2.26-2,4.34,4.34,0,0,0-4.28-.16l-1.4.71a4.41,4.41,0,0,1-4.33-.15,8.29,8.29,0,0,1-3.46-4.16l-6.18-15.11c-1.55-3.8-.62-8.15,2.07-9.6l1.41-.76c2.09-1.13,3.16-4,2.71-7.18q-.42-3-.61-6.09a9.23,9.23,0,0,0-4.18-7.41l-1.55-.86c-3-1.68-4.84-6.09-4-9.85l3.17-14.74c.82-3.8,3.93-5.48,7-3.8l1.55.86a4.34,4.34,0,0,0,6.13-1.69,41.88,41.88,0,0,1,2.83-4.18c1.57-2,1.82-5.34.61-8.31l-.82-2c-1.54-3.85-.62-8.15,2.08-9.64l10.67-5.77a4.39,4.39,0,0,1,4.32.15,8.29,8.29,0,0,1,3.47,4.17l.81,2a8.18,8.18,0,0,0,3.43,4.11,5,5,0,0,0,2.57.66,36.57,36.57,0,0,1,4.56.15c2.43.27,4.46-1.45,5.08-4.33l.42-1.92c.81-3.8,3.93-5.49,7-3.8l11.9,6.59c3,1.68,4.84,6.1,4,9.89l-.41,1.92a9.93,9.93,0,0,0,2.3,8.43q1.92,2.11,3.69,4.42a7.36,7.36,0,0,0,2.27,2,4.32,4.32,0,0,0,4.27.16l1.41-.76a4.41,4.41,0,0,1,4.33.16,8.2,8.2,0,0,1,3.46,4.16l6.18,15.11c1.55,3.84.62,8.15-2.07,9.64l-1.41.76c-2.09,1.13-3.16,4-2.71,7.15q.42,3,.62,6.08c.19,3.15,1.84,6.12,4.17,7.41Z"/><path class="cls-68" d="M125.86,88.73c-1.34,9.13-8.48,13.26-16,9.07S97.19,82.71,98.53,73.58s8.45-13,16.13-8.77,12.52,14.85,11.2,23.92Zm-41.44,81.1c1.34-9.12,8.46-13.08,16.15-8.82s12.53,14.85,11.19,24-8.48,13.26-16,9.08S83.09,179,84.42,169.83ZM37.26,91.78c-1.33,9.07-8.59,13-16.14,8.77S8.6,85.7,9.93,76.63s8.52-13.23,16-9.07S38.6,82.65,37.26,91.78ZM116.37,53.2c-12.85-7.13-25.18-.48-27.46,15v1.16l-44.78,7C40.94,67.71,35,60.21,27.63,56.11,14.79,49,2.64,55.8.36,71.32s6.21,33.73,19.06,40.85c7.41,4.11,14.47,3.61,19.55-.56l36.12,52.07-.28.83c-2.27,15.52,6.4,33.82,19.25,40.94,12.7,7,25,.37,27.26-15.16,2.25-15.36-6.34-33.86-19-40.9-9.14-5.07-17.89-3.11-23.07,3.83L45,103.36A20.32,20.32,0,0,0,46.73,97,27.35,27.35,0,0,0,47,89.64l42.58-7.28c2.51,11.25,9.43,21.83,18.57,26.9,12.71,7,25,.3,27.28-15.23S129.07,60.24,116.37,53.2Z"/><polygon class="cls-69" points="47.85 1107.52 114.5 997.43 148.16 1119.67 182.36 1078.04 224.97 1209.11 47.85 1107.52"/><path class="cls-70" d="M169.08,1005.34c9.16,2.27,17.35,13,18.29,23.9s-5.7,18-14.86,15.68-17.34-13-18.29-23.9S159.93,1003.08,169.08,1005.34Z"/></g></g></g></svg>