<svg width="34" height="26" viewBox="0 0 34 26" fill="none" xmlns="http://www.w3.org/2000/svg">
<path d="M30.9551 0.724609H22.7637C19.9453 0.724609 17.4961 2.67578 16.8809 5.42969C16.2598 2.67578 13.8164 0.724609 10.998 0.724609H2.8125C1.25977 0.724609 0 1.98438 0 3.53711V17.9395C0 19.4922 1.25977 20.752 2.8125 20.752H8.06836C14.0566 20.752 15.8438 22.1816 16.6992 25.1465C16.7402 25.3105 17.0039 25.3105 17.0508 25.1465C17.9121 22.1816 19.6992 20.752 25.6816 20.752H30.9375C32.4902 20.752 33.75 19.4922 33.75 17.9395V3.54297C33.75 1.99609 32.502 0.736328 30.9551 0.724609ZM14.1797 16.2754C14.1797 16.3867 14.0918 16.4805 13.9746 16.4805H4.58203C4.4707 16.4805 4.37695 16.3926 4.37695 16.2754V14.9336C4.37695 14.8223 4.46484 14.7285 4.58203 14.7285H13.9805C14.0918 14.7285 14.1855 14.8164 14.1855 14.9336V16.2754H14.1797ZM14.1797 12.707C14.1797 12.8184 14.0918 12.9121 13.9746 12.9121H4.58203C4.4707 12.9121 4.37695 12.8242 4.37695 12.707V11.3652C4.37695 11.2539 4.46484 11.1602 4.58203 11.1602H13.9805C14.0918 11.1602 14.1855 11.248 14.1855 11.3652V12.707H14.1797ZM14.1797 9.13867C14.1797 9.25 14.0918 9.34375 13.9746 9.34375H4.58203C4.4707 9.34375 4.37695 9.25586 4.37695 9.13867V7.79688C4.37695 7.68555 4.46484 7.5918 4.58203 7.5918H13.9805C14.0918 7.5918 14.1855 7.67969 14.1855 7.79688V9.13867H14.1797ZM29.373 16.2695C29.373 16.3809 29.2852 16.4746 29.168 16.4746H19.7754C19.6641 16.4746 19.5703 16.3867 19.5703 16.2695V14.9277C19.5703 14.8164 19.6582 14.7227 19.7754 14.7227H29.1738C29.2852 14.7227 29.3789 14.8105 29.3789 14.9277V16.2695H29.373ZM29.373 12.7012C29.373 12.8125 29.2852 12.9062 29.168 12.9062H19.7754C19.6641 12.9062 19.5703 12.8184 19.5703 12.7012V11.3594C19.5703 11.248 19.6582 11.1543 19.7754 11.1543H29.1738C29.2852 11.1543 29.3789 11.2422 29.3789 11.3594V12.7012H29.373ZM29.373 9.13281C29.373 9.24414 29.2852 9.33789 29.168 9.33789H19.7754C19.6641 9.33789 19.5703 9.25 19.5703 9.13281V7.79688C19.5703 7.68555 19.6582 7.5918 19.7754 7.5918H29.1738C29.2852 7.5918 29.3789 7.67969 29.3789 7.79688V9.13281H29.373Z" fill="#F1F1F1"/>
</svg>
