<svg width="33" height="25" viewBox="0 0 33 25" fill="none" xmlns="http://www.w3.org/2000/svg">
<path d="M10.3125 21.0723C9.9847 21.0726 9.66803 20.9534 9.42175 20.7371L1.17176 13.5184C1.02666 13.3913 0.91038 13.2347 0.830716 13.0591C0.751051 12.8835 0.709839 12.6928 0.709839 12.5C0.709839 12.3071 0.751051 12.1165 0.830716 11.9409C0.91038 11.7653 1.02666 11.6087 1.17176 11.4816L9.42175 4.26289C9.69193 4.02648 10.0449 3.90707 10.4032 3.93095C10.7614 3.95482 11.0954 4.12001 11.3318 4.39018C11.5682 4.66035 11.6876 5.01337 11.6638 5.37158C11.6399 5.72979 11.4747 6.06384 11.2045 6.30025L4.11791 12.5L11.2039 18.6997C11.4113 18.8811 11.5584 19.1213 11.6256 19.3885C11.6928 19.6556 11.6769 19.9369 11.5801 20.1948C11.4832 20.4527 11.3099 20.6748 11.0834 20.8316C10.8569 20.9884 10.588 21.0724 10.3125 21.0723Z" fill="#F2F2F2"/>
<path d="M22.6875 21.0723C22.412 21.0725 22.1429 20.9886 21.9163 20.8319C21.6897 20.6752 21.5164 20.453 21.4194 20.1951C21.3224 19.9372 21.3065 19.6558 21.3737 19.3886C21.4409 19.1214 21.588 18.8811 21.7955 18.6997L28.8821 12.5L21.7961 6.30025C21.526 6.06384 21.3608 5.72979 21.3369 5.37158C21.313 5.01337 21.4324 4.66035 21.6688 4.39018C21.9052 4.12001 22.2393 3.95482 22.5975 3.93095C22.9557 3.90707 23.3087 4.02648 23.5789 4.26289L31.8289 11.4816C31.974 11.6087 32.0903 11.7653 32.1699 11.9409C32.2496 12.1165 32.2908 12.3071 32.2908 12.5C32.2908 12.6929 32.2496 12.8835 32.1699 13.0591C32.0903 13.2347 31.974 13.3913 31.8289 13.5184L23.5789 20.7371C23.3325 20.9537 23.0155 21.0729 22.6875 21.0723Z" fill="#F2F2F2"/>
<path d="M13.4063 24.166C13.1955 24.166 12.9876 24.1167 12.7992 24.0221C12.6109 23.9276 12.4472 23.7903 12.3212 23.6213C12.1953 23.4523 12.1106 23.2562 12.0738 23.0486C12.037 22.8411 12.0492 22.6278 12.1095 22.4258L18.297 1.80079C18.3436 1.62577 18.4248 1.46188 18.5359 1.31884C18.647 1.1758 18.7857 1.05651 18.9438 0.968035C19.1018 0.879565 19.276 0.823714 19.456 0.803792C19.636 0.783869 19.8182 0.800279 19.9918 0.85205C20.1653 0.903822 20.3268 0.989901 20.4664 1.10519C20.6061 1.22048 20.7213 1.36263 20.805 1.52322C20.8888 1.68381 20.9394 1.85958 20.954 2.04012C20.9686 2.22065 20.9468 2.40227 20.8899 2.57422L14.7024 23.1992C14.6192 23.4784 14.4481 23.7233 14.2146 23.8975C13.9811 24.0716 13.6976 24.1658 13.4063 24.166Z" fill="#F2F2F2"/>
</svg>
