<svg width="32" height="25" viewBox="0 0 32 25" fill="none" xmlns="http://www.w3.org/2000/svg">
<path d="M4.92308 0.57692C2.21908 0.57692 0 2.72546 0 5.34615V19.6538C0 22.2733 2.21908 24.4231 4.92308 24.4231H7.38462C7.71104 24.4231 8.02409 24.2975 8.2549 24.0739C8.48571 23.8503 8.61539 23.547 8.61539 23.2308V22.0385H9.84615V23.2308C9.84615 23.547 9.97582 23.8503 10.2066 24.0739C10.4375 24.2975 10.7505 24.4231 11.0769 24.4231H20.9231C21.2495 24.4231 21.5625 24.2975 21.7934 24.0739C22.0242 23.8503 22.1538 23.547 22.1538 23.2308V22.0385H23.3846V23.2308C23.3846 23.547 23.5143 23.8503 23.7451 24.0739C23.9759 24.2975 24.289 24.4231 24.6154 24.4231H27.0769C29.7809 24.4231 32 22.2733 32 19.6538V5.34615C32 2.72546 29.7809 0.57692 27.0769 0.57692H4.92308ZM4.92308 2.96154H27.0769C28.4492 2.96154 29.5385 4.01554 29.5385 5.34615V19.6538C29.5385 20.9833 28.4492 22.0385 27.0769 22.0385H25.8462V20.8462C25.8462 20.5299 25.7165 20.2267 25.4857 20.0031C25.2549 19.7795 24.9418 19.6538 24.6154 19.6538H20.9231C20.5967 19.6538 20.2836 19.7795 20.0528 20.0031C19.822 20.2267 19.6923 20.5299 19.6923 20.8462V22.0385H12.3077V20.8462C12.3077 20.5299 12.178 20.2267 11.9472 20.0031C11.7164 19.7795 11.4033 19.6538 11.0769 19.6538H7.38462C7.0582 19.6538 6.74514 19.7795 6.51433 20.0031C6.28352 20.2267 6.15385 20.5299 6.15385 20.8462V22.0385H4.92308C3.55077 22.0385 2.46154 20.9833 2.46154 19.6538V5.34615C2.46154 4.01554 3.55077 2.96154 4.92308 2.96154ZM9.84615 5.42127C8.44308 5.42127 7.42277 6.38346 7.42277 8.13973C7.42277 9.28792 7.92739 10.0665 8.65354 10.7867C8.93662 11.5056 8.41354 11.7536 8.30769 11.7918C6.84062 12.3057 4.99938 13.0652 4.99938 13.9904V14.4745C4.99938 15.7359 7.51138 16.0018 9.84615 16.0018C12.1846 16.0018 14.6929 15.7359 14.6929 14.4757V13.9904C14.6929 13.0365 12.8468 12.2854 11.3083 11.7918C11.2357 11.7691 10.7988 11.601 11.0769 10.7855C11.8006 10.0653 12.2314 9.28315 12.2314 8.14092C12.2314 6.38227 11.248 5.42127 9.84615 5.42127ZM22.7692 5.45704C22.0209 5.45704 21.3132 5.56196 20.6535 5.83023C20.0061 6.08845 19.418 6.46839 18.923 6.94808C18.4281 7.42778 18.0361 7.99772 17.7698 8.625C17.4905 9.26288 17.3846 9.97231 17.3846 10.7115C17.3846 11.4889 17.5015 12.1852 17.7698 12.835C18.0357 13.4872 18.4062 14.0452 18.8849 14.5114C19.3575 14.974 19.9212 15.3377 20.5772 15.5928C21.2641 15.8487 21.9952 15.975 22.7311 15.9648C23.1865 15.9648 23.5926 15.9684 23.9618 15.9279C24.3286 15.8885 24.72 15.8253 25.1151 15.7419V14.4375C24.7545 14.5388 24.352 14.6378 23.9237 14.6986C23.4954 14.7582 23.0954 14.7725 22.7298 14.7725C22.2129 14.7725 21.7034 14.6867 21.2308 14.5114C20.768 14.338 20.3485 14.0714 20 13.7293C19.6143 13.3739 19.3125 12.9419 19.1151 12.463C18.9034 11.9503 18.8074 11.3661 18.8074 10.7115C18.8074 10.0975 18.9305 9.54188 19.1532 9.03515C19.3797 8.52842 19.6702 8.07654 20.0394 7.73077C20.4246 7.37308 20.8517 7.12865 21.3071 6.94861C21.7649 6.76619 22.2548 6.65054 22.7692 6.65054C23.3108 6.65054 23.8018 6.74831 24.2695 6.91165C24.7372 7.07381 25.1532 7.31704 25.5003 7.65565C25.8437 7.9895 26.1169 8.3925 26.3077 8.88611C26.4997 9.38092 26.5772 9.97707 26.5772 10.6376C26.5772 11.0108 26.5415 11.3554 26.4615 11.7178C26.3953 12.0504 26.2921 12.375 26.1538 12.686H25.1926V7.80469H23.7292V8.17788C23.5807 8.04281 23.4123 7.92989 23.2295 7.84284C23.0015 7.73776 22.7509 7.68667 22.4985 7.69381C22.1514 7.69381 21.8191 7.76773 21.4991 7.91677C21.1791 8.05959 20.8913 8.26218 20.6523 8.51292C20.4062 8.79073 20.224 9.13888 20.0763 9.51923C19.9286 9.90077 19.8449 10.3193 19.8449 10.7867C19.8449 11.2397 19.9163 11.6666 20.0369 12.0529C20.1563 12.4404 20.2929 12.773 20.4985 13.0222C20.7077 13.2786 20.9809 13.4443 21.2677 13.5802C21.5545 13.7162 21.8597 13.8044 22.1908 13.8044C22.416 13.8044 22.6006 13.7913 22.7298 13.7674C22.8615 13.7412 23.0006 13.7078 23.152 13.6553C23.2874 13.6124 23.3858 13.5707 23.4991 13.5063C23.6074 13.4419 23.7317 13.3549 23.8449 13.2822L23.9225 13.6923H27.1138C27.4066 13.2697 27.6277 12.8043 27.7686 12.314C27.9409 11.7214 27.9988 11.1503 27.9988 10.5995C27.9988 9.82088 27.8769 9.10431 27.6135 8.47596C27.3597 7.87312 26.9801 7.32757 26.4985 6.8735C26.0276 6.41911 25.4648 6.06392 24.8455 5.83023C24.1841 5.57806 23.4788 5.45176 22.768 5.45823L22.7692 5.45704ZM22.6917 8.88611C22.8825 8.88611 23.0794 8.88611 23.2308 8.92307C23.3809 8.96004 23.5138 9.02561 23.6923 9.10908V12.165C23.5428 12.2988 23.3746 12.4116 23.1926 12.5C23.0158 12.5948 22.8175 12.646 22.6154 12.649C22.1846 12.649 21.8806 12.4726 21.6923 12.165C21.504 11.8573 21.3846 11.4162 21.3846 10.7867C21.3846 10.2155 21.504 9.75292 21.7305 9.40715C21.827 9.24391 21.9676 9.10919 22.1371 9.0174C22.3067 8.92562 22.4988 8.88024 22.6929 8.88611H22.6917Z" fill="#F2F2F2"/>
</svg>
