<svg width="16" height="12" viewBox="0 0 16 12" fill="none" xmlns="http://www.w3.org/2000/svg">
<path d="M9.322 5.38533H10.7347C10.7674 5.38533 10.7989 5.37236 10.8221 5.34925C10.8453 5.32614 10.8585 5.29477 10.8587 5.262V4.004C10.8587 3.97111 10.8456 3.93957 10.8223 3.91632C10.7991 3.89306 10.7675 3.88 10.7347 3.88H9.322C9.28929 3.88 9.25792 3.89299 9.23479 3.91612C9.21166 3.93925 9.19866 3.97062 9.19866 4.00333V5.262C9.19866 5.33 9.254 5.38533 9.322 5.38533ZM7.35266 1.76533H8.76466C8.79755 1.76533 8.82909 1.75227 8.85234 1.72901C8.8756 1.70576 8.88866 1.67422 8.88866 1.64133V0.382664C8.88849 0.349893 8.87535 0.318524 8.85211 0.295413C8.82887 0.272303 8.79743 0.25933 8.76466 0.259331H7.35266C7.31995 0.259331 7.28858 0.272325 7.26545 0.295454C7.24232 0.318584 7.22933 0.349954 7.22933 0.382664V1.64133C7.22933 1.70933 7.284 1.76466 7.35266 1.76466V1.76533ZM7.35266 3.57533H8.76466C8.7975 3.57516 8.82893 3.56204 8.85215 3.53882C8.87537 3.5156 8.88849 3.48416 8.88866 3.45133V2.19333C8.88849 2.16056 8.87535 2.12919 8.85211 2.10608C8.82887 2.08297 8.79743 2.07 8.76466 2.07H7.35266C7.31995 2.07 7.28858 2.08299 7.26545 2.10612C7.24232 2.12925 7.22933 2.16062 7.22933 2.19333V3.45133C7.22933 3.51933 7.284 3.57466 7.35266 3.57533ZM5.39933 3.57533H6.81266C6.84532 3.57498 6.87652 3.56176 6.89948 3.53854C6.92245 3.51533 6.93533 3.48399 6.93533 3.45133V2.19333C6.93533 2.16062 6.92234 2.12925 6.89921 2.10612C6.87608 2.08299 6.84471 2.07 6.812 2.07H5.4C5.36729 2.07 5.33592 2.08299 5.31279 2.10612C5.28966 2.12925 5.27666 2.16062 5.27666 2.19333V3.45133C5.27666 3.51933 5.332 3.57466 5.4 3.57533H5.39933ZM3.424 3.57533H4.83666C4.86943 3.57515 4.9008 3.56201 4.92391 3.53878C4.94702 3.51554 4.96 3.4841 4.96 3.45133V2.19333C4.96 2.16062 4.947 2.12925 4.92387 2.10612C4.90074 2.08299 4.86937 2.07 4.83666 2.07H3.424C3.39122 2.07 3.35979 2.08297 3.33655 2.10608C3.31331 2.12919 3.30017 2.16056 3.3 2.19333V3.45133C3.3 3.51933 3.356 3.57466 3.424 3.57533ZM7.35266 5.38533H8.76466C8.79743 5.38533 8.82887 5.37236 8.85211 5.34925C8.87535 5.32614 8.88849 5.29477 8.88866 5.262V4.004C8.88866 3.97111 8.8756 3.93957 8.85234 3.91632C8.82909 3.89306 8.79755 3.88 8.76466 3.88H7.35266C7.31995 3.88 7.28858 3.89299 7.26545 3.91612C7.24232 3.93925 7.22933 3.97062 7.22933 4.00333V5.262C7.22933 5.33 7.284 5.38533 7.35266 5.38533ZM5.39933 5.38533H6.81266C6.84526 5.38515 6.87646 5.37208 6.89944 5.34897C6.92243 5.32586 6.93533 5.29459 6.93533 5.262V4.004C6.93542 3.9878 6.93231 3.97175 6.9262 3.95675C6.92008 3.94175 6.91107 3.92811 6.89968 3.91659C6.88829 3.90508 6.87474 3.89592 6.85981 3.88964C6.84488 3.88336 6.82886 3.88008 6.81266 3.88H5.39933C5.36674 3.88017 5.33554 3.89325 5.31255 3.91636C5.28957 3.93947 5.27666 3.97074 5.27666 4.00333V5.262C5.27666 5.33 5.332 5.38533 5.4 5.38533H5.39933ZM3.424 5.38533H4.83666C4.86937 5.38533 4.90074 5.37234 4.92387 5.34921C4.947 5.32608 4.96 5.29471 4.96 5.262V4.004C4.96008 3.9878 4.95698 3.97175 4.95086 3.95675C4.94475 3.94175 4.93574 3.92811 4.92435 3.91659C4.91295 3.90508 4.89941 3.89592 4.88448 3.88964C4.86955 3.88336 4.85353 3.88008 4.83733 3.88H3.424C3.39111 3.88 3.35957 3.89306 3.33631 3.91632C3.31306 3.93957 3.3 3.97111 3.3 4.004V5.262C3.3 5.33 3.356 5.38533 3.424 5.38533ZM1.47733 5.38533H2.89066C2.92326 5.38515 2.95446 5.37208 2.97744 5.34897C3.00043 5.32586 3.01333 5.29459 3.01333 5.262V4.004C3.01342 3.9878 3.01031 3.97175 3.0042 3.95675C2.99808 3.94175 2.98907 3.92811 2.97768 3.91659C2.96629 3.90508 2.95274 3.89592 2.93781 3.88964C2.92288 3.88336 2.90686 3.88008 2.89066 3.88H1.47733C1.44474 3.88017 1.41354 3.89325 1.39055 3.91636C1.36756 3.93947 1.35466 3.97074 1.35466 4.00333V5.262C1.35466 5.33 1.40933 5.38533 1.478 5.38533H1.47733ZM15.842 4.59333C15.7987 4.55933 15.394 4.25333 14.5393 4.25333C14.314 4.254 14.0887 4.27333 13.866 4.31133C13.7007 3.178 12.764 2.62466 12.722 2.60066L12.4927 2.468L12.342 2.686C12.1527 2.978 12.0153 3.30066 11.934 3.63933C11.7807 4.286 11.874 4.894 12.2027 5.41333C11.806 5.63466 11.1693 5.68866 11.04 5.69333H0.500663C0.368339 5.69351 0.241466 5.74606 0.147774 5.8395C0.0540817 5.93294 0.00119123 6.05967 0.000662758 6.192C-0.0116828 7.11522 0.144659 8.03294 0.461996 8.9C0.825329 9.852 1.36533 10.5533 2.06866 10.9827C2.85533 11.4647 4.13533 11.7407 5.58533 11.7407C6.24055 11.7427 6.89452 11.6833 7.53866 11.5633C8.43389 11.3989 9.29532 11.0859 10.0873 10.6373C10.7402 10.2594 11.3278 9.77857 11.8273 9.21333C12.662 8.268 13.1593 7.21533 13.5293 6.28H13.6767C14.5913 6.28 15.1533 5.914 15.4633 5.60733C15.6693 5.412 15.83 5.174 15.9347 4.91L16 4.718L15.842 4.59333Z" fill="#F1F1F1"/>
</svg>
