<svg width="14" height="14" viewBox="0 0 14 14" fill="none" xmlns="http://www.w3.org/2000/svg">
<path d="M13.7358 6.375L7.62221 0.263564C7.53849 0.179631 7.43904 0.11304 7.32954 0.0676034C7.22005 0.0221672 7.10266 -0.0012207 6.98412 -0.0012207C6.86557 -0.0012207 6.74818 0.0221672 6.63869 0.0676034C6.5292 0.11304 6.42974 0.179631 6.34602 0.263564L5.07902 1.53275L6.6899 3.14144C6.87912 3.07725 7.08255 3.06737 7.27711 3.11291C7.47167 3.15846 7.64957 3.25761 7.79065 3.39913C8.09165 3.70013 8.17565 4.13281 8.04833 4.50644L9.59796 6.05825C9.78781 5.99214 9.99248 5.981 10.1884 6.02613C10.3843 6.07126 10.5635 6.17081 10.7053 6.31331C11.127 6.73244 11.127 7.41144 10.7053 7.831C10.6058 7.93064 10.4877 8.00968 10.3577 8.06362C10.2277 8.11755 10.0883 8.14531 9.94752 8.14531C9.80676 8.14531 9.66737 8.11755 9.53735 8.06362C9.40732 8.00968 9.28921 7.93064 9.18977 7.831C9.04044 7.68158 8.93834 7.49156 8.89618 7.28456C8.85402 7.07756 8.87366 6.86274 8.95265 6.66681L7.50102 5.22219V9.02975C7.6034 9.08006 7.7014 9.14831 7.78583 9.23275C8.20277 9.6545 8.20277 10.3309 7.78583 10.7504C7.58371 10.9517 7.31007 11.0648 7.0248 11.0648C6.73954 11.0648 6.46589 10.9517 6.26377 10.7504C6.1387 10.6253 6.0465 10.4712 5.99537 10.3019C5.94424 10.1325 5.93577 9.95315 5.97072 9.77972C6.00566 9.6063 6.08293 9.44421 6.19566 9.30787C6.30839 9.17153 6.45307 9.06517 6.61683 8.99825V5.15438C6.48621 5.0989 6.36718 5.01935 6.26596 4.91988C6.11541 4.76972 6.01309 4.57806 5.97209 4.36942C5.9311 4.16077 5.95329 3.94464 6.03583 3.74869L4.45427 2.15838L0.261709 6.34875C0.0941052 6.51884 0.000152588 6.74805 0.000152588 6.98685C0.000152588 7.22564 0.0941052 7.45485 0.261709 7.62494L6.37533 13.7364C6.45905 13.8203 6.55851 13.8869 6.668 13.9323C6.7775 13.9778 6.89488 14.0012 7.01343 14.0012C7.13198 14.0012 7.24936 13.9778 7.35885 13.9323C7.46835 13.8869 7.5678 13.8203 7.65152 13.7364L13.7354 7.6525C13.8193 7.56878 13.8859 7.46933 13.9314 7.35983C13.9768 7.25034 14.0002 7.13296 14.0002 7.01441C14.0002 6.89586 13.9768 6.77848 13.9314 6.66898C13.8859 6.55949 13.8193 6.46003 13.7354 6.37631L13.7358 6.375Z" fill="#F1F1F1"/>
</svg>
