<svg width="12" height="14" viewBox="0 0 12 14" fill="none" xmlns="http://www.w3.org/2000/svg">
<path d="M10.7143 0.875H1.28571C0.575893 0.875 0 1.46289 0 2.1875V11.8125C0 12.5371 0.575893 13.125 1.28571 13.125H10.7143C11.4241 13.125 12 12.5371 12 11.8125V2.1875C12 1.46289 11.4241 0.875 10.7143 0.875ZM6.53036 10.4289C6.53036 11.6211 5.84464 12.1652 4.84554 12.1652C3.94286 12.1652 3.42054 11.6895 3.15268 11.1125L4.07143 10.5465C4.24821 10.8664 4.40893 11.1371 4.79732 11.1371C5.16696 11.1371 5.40268 10.9895 5.40268 10.4125V6.49961H6.53036V10.4289ZM9.19821 12.1652C8.15089 12.1652 7.47321 11.6566 7.14375 10.9895L8.0625 10.448C8.30357 10.85 8.61964 11.148 9.17411 11.148C9.64018 11.148 9.94018 10.9102 9.94018 10.5793C9.94018 10.1855 9.63482 10.0461 9.11786 9.81367L8.83661 9.69063C8.02232 9.33789 7.48393 8.89219 7.48393 7.9543C7.48393 7.09023 8.12946 6.43398 9.13393 6.43398C9.85179 6.43398 10.3661 6.68828 10.7357 7.35547L9.85714 7.92969C9.66429 7.57695 9.45536 7.4375 9.13125 7.4375C8.80179 7.4375 8.59286 7.65078 8.59286 7.92969C8.59286 8.27422 8.80179 8.41367 9.28661 8.62969L9.56786 8.75273C10.5268 9.17109 11.0652 9.60039 11.0652 10.5629C11.0652 11.5965 10.267 12.1652 9.19821 12.1652Z" fill="#F1F1F1"/>
</svg>
