<svg width="14" height="14" viewBox="0 0 14 14" fill="none" xmlns="http://www.w3.org/2000/svg">
<path d="M12.9793 6.895C12.9788 6.49331 12.8453 6.10309 12.5996 5.7853C12.354 5.46751 12.0099 5.24004 11.6213 5.13844L13.3643 0H4.72806L6.47631 5.15681C6.09911 5.26645 5.76755 5.4953 5.53127 5.80911C5.29498 6.12292 5.16668 6.50481 5.16556 6.89762C5.16556 7.50619 5.46875 8.04606 5.93163 8.37856C5.74633 8.64086 5.5348 8.88362 5.30031 9.10306C4.86866 9.51372 4.364 9.84002 3.81238 10.0651C3.32456 9.73656 3.11544 9.15556 3.30444 8.63888C5.28675 8.02113 4.84925 5.09994 2.77594 5.09119C2.29439 5.09154 1.83267 5.28298 1.49217 5.62348C1.15167 5.96399 0.960223 6.42571 0.959875 6.90725C0.959875 7.40206 1.15981 7.85531 1.48619 8.18081C1.45644 8.2355 1.42888 8.295 1.39913 8.35406C1.12831 8.9145 0.820313 9.54581 0.702188 10.2546C0.467688 11.6742 0.852688 12.8135 1.78238 13.4584C2.28494 13.813 2.88535 14.0026 3.50044 14.0009C4.56444 14.0009 5.64725 13.4654 6.69288 12.9456C7.44013 12.5786 8.21013 12.1936 8.96656 12.0072C9.247 11.9389 9.53881 11.8983 9.84638 11.8519C10.4707 11.7631 11.1156 11.6699 11.6944 11.3326C12.0254 11.1434 12.311 10.884 12.531 10.5725C12.7511 10.2611 12.9002 9.9053 12.9679 9.53006C13.0643 8.95844 12.9733 8.37098 12.7085 7.85531C12.8839 7.57487 12.9797 7.24937 12.9797 6.89587L12.9793 6.895ZM12.1888 6.895C12.1884 7.1656 12.0808 7.42501 11.8894 7.61635C11.6981 7.80769 11.4387 7.91534 11.1681 7.91569C10.2016 7.9135 9.77813 6.69462 10.5363 6.09262L10.5385 6.08869C10.5731 6.06375 10.6098 6.03837 10.6435 6.01519C10.6435 6.01519 10.6505 6.01519 10.6505 6.01125C10.6663 6.00206 10.682 5.99069 10.6982 5.9815C10.703 5.9815 10.7052 5.97931 10.7091 5.97931C10.7253 5.97012 10.7459 5.96356 10.7664 5.95437C10.787 5.94519 10.8071 5.93863 10.8238 5.92944C10.8277 5.92944 10.8303 5.92725 10.8347 5.92725C10.8509 5.92244 10.8693 5.91369 10.885 5.9115C10.8872 5.9115 10.8968 5.90669 10.9012 5.90669C10.9218 5.90188 10.9375 5.8975 10.9576 5.89488H10.9598L11.0215 5.88131C11.0254 5.88131 11.0324 5.88131 11.0373 5.8765C11.053 5.8765 11.0692 5.87169 11.0876 5.87169H11.1055C11.1261 5.87169 11.1462 5.8695 11.1716 5.8695H11.2241C11.2403 5.8695 11.2538 5.8695 11.2696 5.87169H11.2766C11.3085 5.8765 11.3426 5.88088 11.3746 5.8905C11.6048 5.93933 11.8112 6.06576 11.9594 6.24862C12.1075 6.43147 12.1883 6.65967 12.1883 6.895H12.1888ZM5.85856 0.811563H12.2343L10.7713 5.12706C10.7096 5.13887 10.6505 5.159 10.5888 5.17956L9.04881 2.03963L7.50356 5.15944C7.44087 5.14077 7.377 5.1263 7.31238 5.11613L5.85856 0.811563ZM8.757 6.54194C8.68221 6.16783 8.49057 5.82712 8.20969 5.56894L9.04838 3.87625L9.89581 5.60525C9.63665 5.85967 9.45972 6.18594 9.38788 6.54194H8.757ZM6.72656 5.90144C6.74535 5.89629 6.76451 5.89263 6.78387 5.8905H6.79481C6.811 5.88569 6.82675 5.88569 6.8425 5.88131H6.85869C6.87444 5.88131 6.88844 5.8765 6.90419 5.8765H7.06125C7.07744 5.8765 7.091 5.88131 7.10281 5.88131C7.11156 5.88131 7.11375 5.88131 7.12338 5.88613C7.13913 5.89094 7.15094 5.89094 7.16669 5.89313C7.1715 5.89313 7.17588 5.89312 7.18463 5.89706L7.23931 5.90887H7.24413C7.25988 5.91369 7.27869 5.91806 7.29444 5.92681C7.29663 5.92681 7.30144 5.929 7.31019 5.929C7.322 5.93381 7.33775 5.93819 7.35175 5.94475C7.3535 5.94475 7.35831 5.94956 7.36269 5.94956C7.37844 5.95875 7.39463 5.96356 7.41038 5.97013H7.41519C7.43419 5.97712 7.45192 5.98717 7.46769 5.99988H7.4725C7.48825 6.00688 7.504 6.01781 7.52019 6.02744C7.52412 6.02744 7.52413 6.03225 7.52894 6.03225C7.54513 6.03925 7.5565 6.05281 7.57225 6.05981L7.57706 6.06463C7.62475 6.10094 7.67025 6.14162 7.71663 6.18319L7.71838 6.18537C7.90081 6.37656 8.00144 6.62944 7.99881 6.89106C7.9555 8.20838 6.00031 8.20838 5.957 6.89106C5.95481 6.42425 6.27375 6.01606 6.727 5.90231L6.72656 5.90144ZM2.73656 5.87169C3.00761 5.87169 3.26756 5.97936 3.45923 6.17102C3.65089 6.36269 3.75856 6.62264 3.75856 6.89369C3.75856 7.16474 3.65089 7.42469 3.45923 7.61635C3.26756 7.80801 3.00761 7.91569 2.73656 7.91569C2.17438 7.91569 1.71588 7.45762 1.71588 6.895C1.71588 6.33237 2.17438 5.87169 2.73656 5.87169V5.87169ZM12.1656 9.38831C12.1189 9.64736 12.0161 9.89303 11.8642 10.108C11.7124 10.323 11.5152 10.502 11.2866 10.6326C10.8443 10.8876 10.2996 10.9699 9.73044 11.0491C9.40872 11.0902 9.08924 11.1473 8.77319 11.2201C7.93013 11.4279 7.119 11.8309 6.33238 12.2207C5.32788 12.7199 4.37981 13.1889 3.50044 13.1889C3.04933 13.1917 2.60894 13.0514 2.24263 12.7881C1.35144 12.1726 1.39519 11.0176 1.50194 10.3841C1.59775 9.79125 1.869 9.23781 2.12844 8.70712C2.14725 8.67519 2.15819 8.64544 2.17438 8.61394C2.26319 8.64544 2.35638 8.67038 2.45438 8.687C2.29906 9.54581 2.73656 10.4348 3.58881 10.8723L3.7415 10.9515L3.90775 10.8924C4.6165 10.6391 5.27494 10.2314 5.85375 9.68494C6.17462 9.38633 6.45775 9.04958 6.69681 8.68219C7.14139 8.75038 7.59546 8.65142 7.97135 8.40442C8.34723 8.15741 8.61825 7.77989 8.73206 7.34475H9.41325C9.51397 7.73353 9.74096 8.07785 10.0586 8.32365C10.3762 8.56944 10.7664 8.70279 11.1681 8.70275C11.5054 8.70275 11.8173 8.60956 12.0838 8.45206C12.1888 8.75525 12.2224 9.072 12.1656 9.38875V9.38831Z" fill="#F1F1F1"/>
</svg>
