<svg width="14" height="16" viewBox="0 0 14 16" fill="none" xmlns="http://www.w3.org/2000/svg">
<path d="M7.336 0C7.232 0 7.1255 0.0055 7.0155 0.0135C4.198 0.237 4.9455 3.219 4.9035 4.2135C4.8515 4.94 4.7035 5.5155 4.2035 6.227C3.612 6.9275 2.784 8.0605 2.391 9.2395C2.2065 9.794 2.1175 10.365 2.201 10.9015C2.16955 10.9248 2.14375 10.9549 2.1255 10.9895C1.9535 11.1695 1.8255 11.391 1.685 11.5495C1.5525 11.682 1.3625 11.727 1.1535 11.8155C0.9455 11.906 0.7135 11.995 0.578 12.271C0.518 12.3965 0.4865 12.5315 0.4895 12.6725C0.4895 12.8025 0.508 12.938 0.526 13.029C0.5655 13.2945 0.604 13.5135 0.552 13.675C0.3855 14.1275 0.3675 14.4375 0.482 14.6645C0.5985 14.8885 0.8385 14.977 1.1065 15.066C1.6485 15.1985 2.38 15.1565 2.9585 15.464C3.575 15.7765 4.203 15.912 4.703 15.7795C4.87547 15.7408 5.03715 15.6642 5.17631 15.5552C5.31547 15.4463 5.42861 15.3077 5.5075 15.1495C5.898 15.147 6.3275 14.9695 7.013 14.9255C7.479 14.886 8.0625 15.105 8.7315 15.058C8.7495 15.1495 8.773 15.1905 8.8095 15.282V15.2845C9.0695 15.8025 9.5515 16.037 10.0675 15.998C10.58 15.9565 11.127 15.6415 11.5695 15.126C11.9915 14.618 12.692 14.404 13.1555 14.126C13.3875 13.9925 13.575 13.8135 13.588 13.5555C13.6035 13.29 13.4555 13.014 13.114 12.639V12.5735L13.1115 12.571C12.997 12.4385 12.945 12.2145 12.885 11.9545C12.8275 11.686 12.765 11.431 12.557 11.2565C12.515 11.22 12.4735 11.212 12.4295 11.168C12.3926 11.142 12.3491 11.1267 12.304 11.124C12.5905 10.272 12.4785 9.426 12.1865 8.6625C11.8325 7.7225 11.21 6.9025 10.7385 6.34C10.207 5.6705 9.6865 5.0355 9.697 4.0955C9.715 2.66 9.8555 0.007 7.335 0.0015L7.336 0ZM7.6875 2.2705H7.698C7.8385 2.2705 7.9605 2.3125 8.086 2.401C8.2135 2.4915 8.3075 2.6225 8.3775 2.7575C8.448 2.9295 8.485 3.062 8.4895 3.239C8.4895 3.2265 8.492 3.213 8.492 3.2005V3.2705C8.492 3.265 8.4895 3.2605 8.4895 3.255L8.487 3.239C8.487 3.401 8.4535 3.5625 8.3885 3.7105C8.35761 3.79476 8.30863 3.87122 8.245 3.9345C8.227 3.9245 8.2085 3.914 8.1875 3.906C8.1175 3.8745 8.055 3.8645 7.9975 3.818C7.95019 3.79905 7.90134 3.78416 7.8515 3.7735C7.883 3.735 7.948 3.685 7.974 3.641C8.008 3.5575 8.026 3.4665 8.0315 3.373V3.3595C8.03292 3.26924 8.01871 3.17941 7.9895 3.094C7.961 3.0055 7.925 2.9605 7.87 2.8725C7.8125 2.828 7.758 2.784 7.69 2.784H7.68C7.6175 2.784 7.5625 2.802 7.5055 2.8725C7.44294 2.93418 7.39642 3.01022 7.37 3.094C7.33368 3.178 7.31333 3.26804 7.31 3.3595V3.373C7.31 3.4325 7.3155 3.4925 7.3225 3.5525C7.1925 3.5085 7.031 3.461 6.9165 3.417C6.91027 3.37309 6.90676 3.32884 6.906 3.2845V3.271C6.90094 3.09492 6.93492 2.9199 7.0055 2.7585C7.06 2.6125 7.159 2.487 7.292 2.404C7.406 2.3185 7.544 2.2715 7.6875 2.2715V2.2705ZM5.7135 2.31H5.737C5.831 2.31 5.917 2.3415 6.003 2.3985C6.1015 2.4845 6.1805 2.591 6.2325 2.708C6.2925 2.8415 6.326 2.9765 6.3365 3.1535V3.156C6.339 3.2445 6.339 3.292 6.334 3.3335V3.388L6.2795 3.4035C6.178 3.44 6.0975 3.492 6.016 3.537C6.024 3.477 6.024 3.417 6.0185 3.3595V3.349C6.011 3.261 5.9925 3.2165 5.964 3.1275C5.94266 3.05906 5.90409 2.99725 5.852 2.948C5.81926 2.9188 5.77631 2.90371 5.7325 2.906H5.7165C5.67 2.9085 5.6305 2.932 5.5945 2.9945C5.55042 3.0452 5.52241 3.10785 5.514 3.1745C5.4955 3.2445 5.49 3.32 5.498 3.396V3.4035C5.506 3.495 5.5215 3.5395 5.5525 3.6275C5.57262 3.69533 5.61041 3.75659 5.662 3.805C5.67 3.813 5.6755 3.8185 5.6855 3.8205C5.639 3.86 5.6075 3.868 5.569 3.912C5.5425 3.9305 5.5145 3.954 5.4805 3.9595C5.41116 3.87609 5.35004 3.78617 5.298 3.691C5.23421 3.55084 5.19886 3.39942 5.194 3.2455C5.18391 3.09507 5.20153 2.94406 5.246 2.8C5.2855 2.67 5.348 2.5475 5.436 2.4435C5.522 2.355 5.608 2.311 5.7145 2.311L5.7135 2.31ZM6.6275 3.448C6.849 3.448 7.115 3.4895 7.4375 3.7135C7.633 3.847 7.787 3.8935 8.141 4.0235C8.313 4.115 8.4115 4.2035 8.461 4.292V4.2035C8.48474 4.2518 8.49796 4.30459 8.49977 4.35837C8.50158 4.41216 8.49194 4.46572 8.4715 4.5155C8.388 4.724 8.1275 4.9455 7.761 5.078V5.0805C7.5835 5.169 7.4275 5.302 7.245 5.3905C7.0605 5.479 6.8515 5.586 6.5705 5.568C6.46874 5.57247 6.36707 5.55736 6.271 5.5235C6.19694 5.48418 6.12561 5.43991 6.0575 5.391C5.9275 5.3025 5.8155 5.1695 5.649 5.081V5.0785H5.6465C5.378 4.9145 5.235 4.737 5.188 4.6045C5.144 4.425 5.1855 4.2925 5.3185 4.204C5.4665 4.1155 5.5705 4.024 5.6385 3.98C5.7085 3.9305 5.735 3.912 5.756 3.894H5.7585V3.8915C5.8705 3.756 6.047 3.579 6.3185 3.49C6.409 3.4665 6.514 3.4485 6.628 3.4485L6.6275 3.448ZM8.492 4.8745C8.732 5.82 9.292 7.1925 9.6515 7.8565C9.8415 8.213 10.2215 8.963 10.3855 9.8725C10.4895 9.87 10.604 9.885 10.727 9.9165C11.159 8.802 10.365 7.604 10.003 7.2705C9.8545 7.138 9.847 7.049 9.9195 7.049C10.313 7.403 10.828 8.0965 11.0155 8.885C11.1015 9.2415 11.123 9.6225 11.0315 9.9995C11.0755 10.0175 11.12 10.041 11.167 10.0435C11.8545 10.401 12.1095 10.669 11.987 11.0695V11.041C11.9485 11.039 11.9065 11.041 11.8675 11.041H11.857C11.959 10.729 11.735 10.489 11.1465 10.2235C10.537 9.958 10.05 9.9995 9.9665 10.5335C9.96061 10.5637 9.95726 10.5943 9.9565 10.625C9.909 10.6405 9.8625 10.6585 9.816 10.6665C9.5295 10.8465 9.3755 11.1145 9.2875 11.4585C9.2015 11.815 9.1755 12.229 9.152 12.706C9.136 12.93 9.0375 13.2655 8.938 13.6065C7.938 14.3225 6.55 14.6325 5.3735 13.8305C5.2975 13.7005 5.209 13.5805 5.105 13.474C5.05507 13.3913 4.99286 13.3166 4.9205 13.2525C5.0425 13.2525 5.147 13.232 5.2305 13.208C5.32586 13.1621 5.40085 13.0824 5.441 12.9845C5.5115 12.807 5.441 12.5205 5.209 12.208C4.9805 11.8985 4.5895 11.5465 4.019 11.1955C3.5975 10.93 3.3605 10.615 3.251 10.2655C3.1415 9.909 3.157 9.5415 3.2405 9.1695C3.4045 8.456 3.824 7.761 4.0925 7.3255C4.1625 7.284 4.116 7.417 3.819 7.977C3.5555 8.477 3.0585 9.641 3.7375 10.5445C3.7636 9.88464 3.91018 9.23512 4.17 8.628C4.5445 7.7765 5.3315 6.2925 5.394 5.1155C5.4255 5.1415 5.5375 5.207 5.5865 5.251C5.73 5.3395 5.839 5.4725 5.98 5.561C6.1205 5.6935 6.2975 5.785 6.5635 5.785C6.5895 5.7875 6.613 5.7875 6.636 5.7875C6.9095 5.7875 7.1235 5.699 7.3 5.61C7.4925 5.5185 7.6495 5.386 7.7945 5.342H7.797C8.107 5.2535 8.3545 5.0735 8.4925 4.8755L8.492 4.8745ZM9.9505 10.8465C9.9765 11.247 10.18 11.677 10.539 11.765C10.9295 11.8535 11.4945 11.5435 11.7315 11.255L11.872 11.2495C12.0825 11.244 12.2575 11.255 12.4365 11.427L12.439 11.4295C12.577 11.562 12.6425 11.7835 12.6995 12.013C12.757 12.281 12.801 12.5335 12.973 12.7235C13.2955 13.075 13.4025 13.3275 13.3975 13.484C13.387 13.658 13.272 13.7465 13.064 13.8795C12.6445 14.148 11.9 14.3535 11.426 14.927C11.014 15.419 10.512 15.687 10.0685 15.721C9.626 15.7575 9.243 15.5885 9.019 15.1225L9.0165 15.12C8.876 14.854 8.936 14.4375 9.053 13.9945C9.1705 13.549 9.3395 13.0965 9.363 12.729C9.3865 12.2525 9.4125 11.8385 9.4905 11.5175C9.571 11.2075 9.6965 10.986 9.9205 10.864L9.949 10.848L9.9505 10.8465ZM2.7395 10.88H2.7475C2.784 10.88 2.818 10.8825 2.8515 10.8905C3.1015 10.927 3.323 11.112 3.534 11.3905L4.1405 12.5L4.143 12.5025C4.3045 12.8565 4.6455 13.2105 4.9345 13.594C5.224 13.992 5.448 14.3485 5.422 14.6405V14.646C5.3825 15.1405 5.1015 15.4085 4.672 15.508C4.242 15.5965 3.6585 15.508 3.0755 15.198C2.43 14.8415 1.6615 14.8855 1.1695 14.7965C0.925 14.7525 0.7635 14.661 0.6875 14.5285C0.615 14.396 0.612 14.127 0.771 13.708V13.706C0.849 13.482 0.7925 13.2035 0.753 12.9585C0.7165 12.6925 0.6985 12.4865 0.7815 12.333C0.888 12.109 1.047 12.0675 1.242 11.9765C1.4375 11.888 1.6695 11.844 1.8515 11.664H1.854V11.6615C2.0235 11.485 2.1515 11.2635 2.2995 11.104C2.425 10.9685 2.552 10.88 2.7395 10.88ZM7.5135 4.8305C7.224 4.963 6.883 5.187 6.521 5.187C6.159 5.187 5.875 5.0105 5.6695 4.877C5.5655 4.7865 5.482 4.6975 5.4195 4.653C5.31 4.565 5.323 4.4295 5.37 4.4295C5.4425 4.4395 5.456 4.52 5.5025 4.565C5.568 4.609 5.646 4.6975 5.742 4.7865C5.9375 4.919 6.198 5.0985 6.5205 5.0985C6.844 5.0985 7.224 4.919 7.453 4.7865C7.583 4.698 7.7495 4.565 7.885 4.4765C7.989 4.385 7.9845 4.2965 8.0695 4.2965C8.1555 4.307 8.0935 4.385 7.9735 4.518C7.851 4.6095 7.6635 4.742 7.513 4.8305H7.5135ZM6.792 3.7735V3.761C6.7895 3.7475 6.7995 3.7325 6.8125 3.727C6.859 3.6985 6.932 3.7085 6.9845 3.7295C7.026 3.7295 7.091 3.7735 7.086 3.82C7.0805 3.8515 7.0285 3.8645 6.9945 3.8645C6.9585 3.8645 6.932 3.836 6.901 3.818C6.867 3.8075 6.8015 3.8125 6.7915 3.7735H6.792ZM6.4245 3.7735C6.411 3.813 6.3485 3.8075 6.315 3.818C6.2835 3.836 6.2575 3.8645 6.221 3.8645C6.187 3.8645 6.1325 3.851 6.1295 3.818C6.125 3.7735 6.187 3.7295 6.229 3.7295C6.2835 3.708 6.351 3.698 6.403 3.727C6.4135 3.7325 6.427 3.7475 6.4215 3.761V3.7735H6.4245Z" fill="#F1F1F1"/>
</svg>
