<svg width="31" height="31" viewBox="0 0 31 31" fill="none" xmlns="http://www.w3.org/2000/svg">
<g clip-path="url(#clip0)">
<path d="M26.4961 8.01501L22.0939 15.6239L17.9298 8.36196C17.9008 8.31165 17.8854 8.25454 17.8853 8.19636C17.8852 8.13818 17.9003 8.081 17.9291 8.03058C17.958 7.98016 17.9995 7.93828 18.0495 7.90916C18.0995 7.88004 18.1563 7.86471 18.2141 7.86472H26.4103C26.4277 7.86495 26.4447 7.86973 26.4597 7.8786C26.4747 7.88746 26.4871 7.90009 26.4958 7.91526C26.5044 7.93043 26.509 7.9476 26.5091 7.96509C26.5091 7.98258 26.5047 7.99978 26.4961 8.01501Z" fill="url(#paint0_linear)"/>
<path d="M26.8661 22.9514L30.9555 15.8286C30.9844 15.7782 30.9996 15.7212 30.9996 15.6631C30.9996 15.605 30.9844 15.5479 30.9555 15.4976L26.6803 8.03099C26.6508 7.98178 26.6091 7.94116 26.5592 7.91312C26.5094 7.88509 26.4532 7.87061 26.3961 7.87111H18.2173C18.1595 7.8711 18.1027 7.88643 18.0527 7.91555C18.0027 7.94467 17.9611 7.98655 17.9323 8.03697C17.9035 8.08739 17.8884 8.14457 17.8885 8.20275C17.8886 8.26093 17.904 8.31805 17.933 8.36835L26.3008 22.9578C26.3304 23.0068 26.3723 23.0473 26.4221 23.0751C26.472 23.103 26.5282 23.1173 26.5853 23.1166C26.6423 23.116 26.6982 23.1004 26.7474 23.0714C26.7967 23.0425 26.8376 23.0011 26.8661 22.9514Z" fill="url(#paint1_linear)"/>
<path d="M13.0956 0.375729L8.9379 7.62489C8.91579 7.6628 8.88424 7.69425 8.84636 7.71612C8.80848 7.73799 8.76559 7.74953 8.72192 7.7496H0.10481C0.0917281 7.74982 0.0788281 7.7465 0.0674579 7.73998C0.0560877 7.73346 0.0466647 7.72399 0.0401734 7.71255C0.033682 7.70112 0.0303607 7.68814 0.0305563 7.67496C0.0307519 7.66179 0.0344573 7.64892 0.0412854 7.63768L4.37843 0.0751457C4.39147 0.0523937 4.41022 0.0334823 4.43279 0.0202972C4.45536 0.00711203 4.48097 0.000113722 4.50706 0L12.8796 0C12.9233 7.09152e-05 12.9661 0.0116801 13.0039 0.0336665C13.0417 0.0556528 13.0731 0.0872457 13.095 0.125285C13.1169 0.163325 13.1284 0.206478 13.1285 0.250428C13.1286 0.294379 13.1173 0.337586 13.0956 0.375729Z" fill="url(#paint2_linear)"/>
<path d="M17.7551 23.2504L13.3814 30.8769C13.3742 30.8893 13.3702 30.9034 13.3701 30.9178C13.37 30.9322 13.3737 30.9464 13.3808 30.9589C13.3879 30.9714 13.3982 30.9818 13.4106 30.989C13.4229 30.9963 13.437 31 13.4513 31H21.6333C21.6907 30.9999 21.747 30.9846 21.7966 30.9556C21.8463 30.9267 21.8875 30.8851 21.9161 30.835C21.9448 30.785 21.9598 30.7282 21.9598 30.6705C21.9598 30.6127 21.9447 30.556 21.916 30.506L17.7551 23.2504Z" fill="url(#paint3_linear)"/>
<path d="M0.0190532 7.67445L4.35778 0.11192C4.36416 0.100616 4.3734 0.0912161 4.38456 0.0846766C4.39571 0.078137 4.40839 0.0746918 4.42131 0.0746918C4.43422 0.0746918 4.4469 0.078137 4.45806 0.0846766C4.46922 0.0912161 4.47846 0.100616 4.48483 0.11192L21.916 30.506C21.9447 30.556 21.9598 30.6127 21.9598 30.6705C21.9598 30.7282 21.9448 30.785 21.9161 30.835C21.8875 30.8851 21.8463 30.9267 21.7966 30.9556C21.747 30.9846 21.6907 30.9999 21.6333 31H13.499C13.4419 31.0014 13.3856 30.9872 13.3358 30.9591C13.2861 30.931 13.2448 30.8899 13.2163 30.8401L0.0190532 7.82315C0.00708982 7.80022 0.000839233 7.7747 0.000839233 7.7488C0.000839233 7.7229 0.00708982 7.69739 0.0190532 7.67445Z" fill="url(#paint4_linear)"/>
</g>
<defs>
<linearGradient id="paint0_linear" x1="17.8854" y1="11.7435" x2="26.5104" y2="11.7435" gradientUnits="userSpaceOnUse">
<stop stop-color="#F6F7F8"/>
<stop offset="0.11" stop-color="#F0F1F2"/>
<stop offset="0.28" stop-color="#ECEDEF"/>
<stop offset="0.67" stop-color="#D8D9DD"/>
<stop offset="0.89" stop-color="#C3C4C9"/>
<stop offset="1" stop-color="#B0AFB4"/>
</linearGradient>
<linearGradient id="paint1_linear" x1="21.1172" y1="6.12677" x2="29.9002" y2="21.239" gradientUnits="userSpaceOnUse">
<stop stop-color="#F6F7F8"/>
<stop offset="0.09" stop-color="#F0F1F3" stop-opacity="0.94"/>
<stop offset="0.18" stop-color="#EDEEF0" stop-opacity="0.91"/>
<stop offset="0.28" stop-color="#ECEDEF" stop-opacity="0.9"/>
<stop offset="0.67" stop-color="#D8D9DD" stop-opacity="0.8"/>
<stop offset="0.89" stop-color="#C3C4C9"/>
<stop offset="1" stop-color="#B0AFB4"/>
</linearGradient>
<linearGradient id="paint2_linear" x1="2.65015" y1="187.773" x2="1082.84" y2="187.773" gradientUnits="userSpaceOnUse">
<stop stop-color="#F6F7F8"/>
<stop offset="0.11" stop-color="#F0F1F2"/>
<stop offset="0.28" stop-color="#ECEDEF"/>
<stop offset="0.67" stop-color="#D8D9DD"/>
<stop offset="0.89" stop-color="#C3C4C9"/>
<stop offset="1" stop-color="#B0AFB4"/>
</linearGradient>
<linearGradient id="paint3_linear" x1="1132" y1="1293.02" x2="839.919" y2="1616.77" gradientUnits="userSpaceOnUse">
<stop stop-color="#F6F7F8"/>
<stop offset="0.11" stop-color="#F0F1F2"/>
<stop offset="0.28" stop-color="#ECEDEF"/>
<stop offset="0.67" stop-color="#D8D9DD"/>
<stop offset="0.89" stop-color="#C3C4C9"/>
<stop offset="1" stop-color="#B0AFB4"/>
</linearGradient>
<linearGradient id="paint4_linear" x1="10.9802" y1="0.0751464" x2="10.9802" y2="31" gradientUnits="userSpaceOnUse">
<stop stop-color="#F6F7F8"/>
<stop offset="0.11" stop-color="#F0F1F2"/>
<stop offset="0.28" stop-color="#ECEDEF"/>
<stop offset="0.67" stop-color="#D8D9DD"/>
<stop offset="0.89" stop-color="#C3C4C9" stop-opacity="0.8"/>
<stop offset="1" stop-color="#B0AFB4"/>
</linearGradient>
<clipPath id="clip0">
<rect width="31" height="31" fill="white"/>
</clipPath>
</defs>
</svg>
