<svg width="20" height="20" viewBox="0 0 20 20" fill="none" xmlns="http://www.w3.org/2000/svg">
<path d="M8.41668 16.75C10.2656 16.7497 12.0613 16.1307 13.5177 14.9917L18.0969 19.5709L19.5698 18.098L14.9906 13.5188C16.1302 12.0622 16.7496 10.2661 16.75 8.41671C16.75 3.82192 13.0115 0.083374 8.41668 0.083374C3.82189 0.083374 0.0833435 3.82192 0.0833435 8.41671C0.0833435 13.0115 3.82189 16.75 8.41668 16.75ZM8.41668 2.16671C11.8636 2.16671 14.6667 4.96983 14.6667 8.41671C14.6667 11.8636 11.8636 14.6667 8.41668 14.6667C4.9698 14.6667 2.16668 11.8636 2.16668 8.41671C2.16668 4.96983 4.9698 2.16671 8.41668 2.16671Z" fill="#F1F1F1"/>
<path d="M9.88751 6.94372C10.2823 7.33955 10.5 7.86247 10.5 8.41663H12.5833C12.5843 7.86916 12.4767 7.32694 12.2668 6.82131C12.0569 6.31567 11.7488 5.85666 11.3604 5.4708C9.78335 3.8958 7.04897 3.8958 5.47293 5.4708L6.94376 6.9458C7.73543 6.15622 9.10001 6.1583 9.88751 6.94372Z" fill="#F1F1F1"/>
</svg>
