<svg width="22" height="27" viewBox="0 0 22 27" fill="none" xmlns="http://www.w3.org/2000/svg">
<path fill-rule="evenodd" clip-rule="evenodd" d="M1 1.5C1 1.10218 1.15804 0.720645 1.43934 0.43934C1.72064 0.158036 2.10218 0 2.5 0H20.5C20.8978 0 21.2794 0.158036 21.5607 0.43934C21.842 0.720645 22 1.10218 22 1.5C22 1.89782 21.842 2.27936 21.5607 2.56066C21.2794 2.84196 20.8978 3 20.5 3H2.5C2.10218 3 1.72064 2.84196 1.43934 2.56066C1.15804 2.27936 1 1.89782 1 1.5ZM1 9C1 8.60218 1.15804 8.22064 1.43934 7.93934C1.72064 7.65804 2.10218 7.5 2.5 7.5H20.5C20.8978 7.5 21.2794 7.65804 21.5607 7.93934C21.842 8.22064 22 8.60218 22 9C22 9.39782 21.842 9.77936 21.5607 10.0607C21.2794 10.342 20.8978 10.5 20.5 10.5H2.5C2.10218 10.5 1.72064 10.342 1.43934 10.0607C1.15804 9.77936 1 9.39782 1 9ZM1 16.5C1 16.1022 1.15804 15.7206 1.43934 15.4393C1.72064 15.158 2.10218 15 2.5 15H11.5C11.8978 15 12.2794 15.158 12.5607 15.4393C12.842 15.7206 13 16.1022 13 16.5C13 16.8978 12.842 17.2794 12.5607 17.5607C12.2794 17.842 11.8978 18 11.5 18H2.5C2.10218 18 1.72064 17.842 1.43934 17.5607C1.15804 17.2794 1 16.8978 1 16.5Z" fill="#F2F2F2"/>
<path d="M2.27116 26H1.22816C1.1395 26 1.07416 25.9813 1.03216 25.944C0.994831 25.902 0.976164 25.8367 0.976164 25.748V21.212C0.976164 21.1233 0.994831 21.0603 1.03216 21.023C1.07416 20.981 1.1395 20.96 1.22816 20.96H2.35516C2.42983 20.96 2.4905 20.9763 2.53716 21.009C2.5885 21.0417 2.63516 21.0953 2.67716 21.17L3.30716 22.311C3.3305 22.353 3.34916 22.3833 3.36316 22.402C3.38183 22.4207 3.40516 22.43 3.43316 22.43H3.49616C3.52416 22.43 3.54516 22.4207 3.55916 22.402C3.57783 22.3833 3.59883 22.353 3.62216 22.311L4.24516 21.17C4.28716 21.0953 4.3315 21.0417 4.37816 21.009C4.4295 20.9763 4.4925 20.96 4.56716 20.96H5.70116C5.78983 20.96 5.85283 20.981 5.89016 21.023C5.93216 21.0603 5.95316 21.1233 5.95316 21.212V25.748C5.95316 25.8367 5.93216 25.902 5.89016 25.944C5.85283 25.9813 5.78983 26 5.70116 26H4.62316C4.5345 26 4.46916 25.9813 4.42716 25.944C4.38983 25.902 4.37116 25.8367 4.37116 25.748V23.284L3.95816 24.047C3.91616 24.1263 3.86483 24.1847 3.80416 24.222C3.74816 24.2547 3.67583 24.271 3.58716 24.271H3.30716C3.2185 24.271 3.14383 24.2547 3.08316 24.222C3.02716 24.1847 2.97816 24.1263 2.93616 24.047L2.52316 23.284V25.748C2.52316 25.8367 2.50216 25.902 2.46016 25.944C2.42283 25.9813 2.35983 26 2.27116 26ZM10.4166 26H7.16859C7.07993 26 7.01459 25.9813 6.97259 25.944C6.93526 25.902 6.91659 25.8367 6.91659 25.748V21.212C6.91659 21.1233 6.93526 21.0603 6.97259 21.023C7.01459 20.981 7.07993 20.96 7.16859 20.96H10.4166C10.5053 20.96 10.5683 20.981 10.6056 21.023C10.6476 21.0603 10.6686 21.1233 10.6686 21.212V22.031C10.6686 22.1197 10.6476 22.185 10.6056 22.227C10.5683 22.2643 10.5053 22.283 10.4166 22.283H8.48459V22.822H9.84959C9.93826 22.822 10.0013 22.843 10.0386 22.885C10.0806 22.9223 10.1016 22.9853 10.1016 23.074V23.823C10.1016 23.9117 10.0806 23.977 10.0386 24.019C10.0013 24.0563 9.93826 24.075 9.84959 24.075H8.48459V24.677H10.4166C10.5053 24.677 10.5683 24.698 10.6056 24.74C10.6476 24.7773 10.6686 24.8403 10.6686 24.929V25.748C10.6686 25.8367 10.6476 25.902 10.6056 25.944C10.5683 25.9813 10.5053 26 10.4166 26ZM12.7987 26H11.7487C11.66 26 11.5947 25.9813 11.5527 25.944C11.5153 25.902 11.4967 25.8367 11.4967 25.748V21.212C11.4967 21.1233 11.5153 21.0603 11.5527 21.023C11.5947 20.981 11.66 20.96 11.7487 20.96H12.4767C12.5653 20.96 12.64 20.974 12.7007 21.002C12.766 21.03 12.829 21.079 12.8897 21.149L14.2477 22.703V21.212C14.2477 21.1233 14.2663 21.0603 14.3037 21.023C14.3457 20.981 14.411 20.96 14.4997 20.96H15.5497C15.6383 20.96 15.7013 20.981 15.7387 21.023C15.7807 21.0603 15.8017 21.1233 15.8017 21.212V25.748C15.8017 25.8367 15.7807 25.902 15.7387 25.944C15.7013 25.9813 15.6383 26 15.5497 26H14.4997C14.411 26 14.3457 25.9813 14.3037 25.944C14.2663 25.902 14.2477 25.8367 14.2477 25.748V24.887L13.0507 23.438V25.748C13.0507 25.8367 13.0297 25.902 12.9877 25.944C12.9503 25.9813 12.8873 26 12.7987 26ZM21.0582 24.677C21.0582 24.8917 21.0255 25.0877 20.9602 25.265C20.8995 25.4377 20.7875 25.587 20.6242 25.713C20.4655 25.8343 20.2462 25.93 19.9662 26C19.6862 26.07 19.3292 26.105 18.8952 26.105C18.4612 26.105 18.1042 26.07 17.8242 26C17.5442 25.93 17.3225 25.8343 17.1592 25.713C17.0005 25.587 16.8885 25.4377 16.8232 25.265C16.7625 25.0877 16.7322 24.8917 16.7322 24.677V21.212C16.7322 21.1233 16.7508 21.0603 16.7882 21.023C16.8302 20.981 16.8955 20.96 16.9842 20.96H18.0832C18.1718 20.96 18.2348 20.981 18.2722 21.023C18.3142 21.0603 18.3352 21.1233 18.3352 21.212V24.404C18.3352 24.4973 18.3702 24.5767 18.4402 24.642C18.5102 24.7027 18.6665 24.733 18.9092 24.733C19.1565 24.733 19.3152 24.7027 19.3852 24.642C19.4552 24.5767 19.4902 24.4973 19.4902 24.404V21.212C19.4902 21.1233 19.5088 21.0603 19.5462 21.023C19.5882 20.981 19.6535 20.96 19.7422 20.96H20.8062C20.8948 20.96 20.9578 20.981 20.9952 21.023C21.0372 21.0603 21.0582 21.1233 21.0582 21.212V24.677Z" fill="#F2F2F2"/>
</svg>
