<svg width="12" height="14" viewBox="0 0 12 14" fill="none" xmlns="http://www.w3.org/2000/svg">
<path d="M4.2789 6.125L5.98892 5.25L7.69893 6.125V7.875L5.98892 8.75L4.2789 7.875V6.125ZM11.6533 6.16602L9.11503 7.875C8.9369 7.875 8.79886 7.81576 8.70089 7.69727C8.60292 7.57878 8.55393 7.43294 8.55393 7.25977V5.46875L5.98892 3.9375L3.43726 5.46875V8.53125L9.3555 12.0723L6.79048 13.8086C6.56783 13.9362 6.29841 14 5.98224 14C5.66606 14 5.39665 13.9362 5.17399 13.8086L0.337865 10.541C0.0884885 10.3952 -0.0228404 10.2174 0.00387855 10.0078V3.99219C-0.0228404 3.78255 0.0884885 3.60938 0.337865 3.47266L5.17399 0.191406C5.39665 0.0638021 5.66606 0 5.98224 0C6.29841 0 6.56783 0.0638021 6.79048 0.191406L11.64 3.47266C11.8626 3.60026 11.9695 3.75521 11.9606 3.9375H11.974V5.63281C12.0096 5.84245 11.9027 6.02018 11.6533 6.16602Z" fill="#F1F1F1"/>
</svg>
