<svg width="14" height="14" viewBox="0 0 14 14" fill="none" xmlns="http://www.w3.org/2000/svg">
<path d="M9.99207 0C9.44763 0.00414265 8.90634 0.0830467 8.38338 0.2345L8.34707 0.246313C8.01804 0.189308 7.68517 0.157279 7.35132 0.1505C6.66313 0.138688 6.0725 0.304937 5.5965 0.583187C5.12707 0.42175 4.15407 0.138688 3.12857 0.196C2.41588 0.2345 1.63625 0.451063 1.057 1.06181C0.483004 1.67037 0.178066 2.61362 0.241504 3.899C0.259441 4.25206 0.360066 4.82825 0.528504 5.57769C0.694754 6.32537 0.929691 7.20037 1.22369 8.00012C1.51769 8.79769 1.83838 9.51519 2.34019 10.0026C2.59044 10.2463 2.93694 10.4541 3.34469 10.4361C3.62994 10.4243 3.88719 10.2992 4.11075 10.1146C4.21969 10.2581 4.3365 10.3193 4.44107 10.3766C4.57582 10.4497 4.70313 10.4996 4.83788 10.5319C5.07938 10.5932 5.49194 10.6733 5.97494 10.591C6.15082 10.5594 6.32225 10.5066 6.4855 10.4339L6.50607 11.0057C6.531 11.6095 6.54763 12.1677 6.727 12.6577C6.75675 12.7378 6.83682 13.1477 7.15094 13.5122C7.46769 13.8766 8.08238 14.1024 8.78675 13.9519C9.28157 13.8469 9.91244 13.6557 10.332 13.0589C10.7468 12.4709 10.9336 11.6257 10.9703 10.2537C10.9791 10.1784 10.9909 10.1172 11.0018 10.0577L11.0998 10.0669H11.1116C11.6401 10.0896 12.2146 10.0144 12.6954 9.79081C13.1189 9.59481 13.4404 9.39662 13.6749 9.04356C13.7323 8.9565 13.7979 8.84975 13.8145 8.66731C13.8324 8.4875 13.7274 8.20225 13.5542 8.07056C13.2081 7.80631 12.9894 7.9065 12.7544 7.95681C12.5244 8.00639 12.2902 8.03451 12.0549 8.04081C12.7291 6.90637 13.2121 5.69887 13.4881 4.63181C13.6522 4.0005 13.7436 3.4195 13.7502 2.91156C13.7594 2.40363 13.7165 1.95475 13.4129 1.56538C12.4604 0.350875 11.1226 0.013125 10.0883 0.0021875H9.9925L9.99207 0ZM9.9645 0.374063C10.9423 0.364875 12.1927 0.638313 13.0904 1.78631C13.2934 2.044 13.3529 2.41981 13.3459 2.88487C13.3389 3.34994 13.2528 3.90337 13.0953 4.51194C12.7925 5.69275 12.2154 7.06388 11.4069 8.29719C11.4348 8.31815 11.4654 8.33509 11.4979 8.3475C11.6664 8.41794 12.0514 8.477 12.8214 8.31994C13.0152 8.27837 13.1569 8.25169 13.3048 8.36325C13.3407 8.39352 13.369 8.43174 13.3876 8.47488C13.4061 8.51801 13.4143 8.56488 13.4116 8.61175C13.4036 8.6828 13.3769 8.75044 13.3341 8.80775C13.1858 9.03044 12.8927 9.24306 12.5164 9.4185C12.1839 9.57294 11.7049 9.653 11.284 9.65781C11.0701 9.66 10.8741 9.64381 10.7069 9.59131L10.6982 9.58956C10.6339 10.2069 10.4864 11.4284 10.3902 11.984C10.3132 12.4324 10.1784 12.7907 9.92119 13.0572C9.6635 13.3263 9.30125 13.4855 8.81125 13.5905C8.20532 13.7204 7.76519 13.5813 7.48082 13.342C7.19644 13.1027 7.06607 12.7838 6.98863 12.5899C6.93438 12.4556 6.90682 12.2824 6.87969 12.0496C6.84991 11.7717 6.83007 11.4929 6.82019 11.2136C6.80225 10.7236 6.79525 10.2336 6.80225 9.74137C6.54947 9.97314 6.23544 10.1274 5.8975 10.1859C5.49457 10.2541 5.13669 10.1859 4.92275 10.1334C4.81721 10.1065 4.71538 10.0666 4.61957 10.0148C4.51938 9.96231 4.42575 9.90325 4.36232 9.78425C4.32576 9.7161 4.31445 9.63724 4.33038 9.56156C4.34929 9.4847 4.39352 9.41643 4.45594 9.36775C4.57188 9.27369 4.725 9.22206 4.95469 9.17394C5.37425 9.08687 5.52213 9.02825 5.61094 8.95694C5.68619 8.89787 5.77325 8.77494 5.92288 8.59469C5.92288 8.58813 5.92288 8.57894 5.92069 8.57194C5.64958 8.56368 5.38419 8.4919 5.14588 8.36238C5.05969 8.45337 4.61038 8.92762 4.06613 9.58387C3.83819 9.85688 3.58532 10.0144 3.31669 10.0262C3.05025 10.0371 2.80788 9.90325 2.60313 9.70462C2.19319 9.30562 1.86463 8.61963 1.57982 7.84481C1.295 7.07 1.06488 6.20681 0.898629 5.47312C0.734566 4.73681 0.636566 4.14444 0.622566 3.85962C0.561316 2.64512 0.846129 1.82744 1.3335 1.30988C1.82088 0.792313 2.48894 0.598938 3.14082 0.560438C4.30982 0.494375 5.4215 0.902125 5.64507 0.98875C6.07775 0.69475 6.636 0.51275 7.33338 0.523687C7.66386 0.528548 7.99269 0.571413 8.31338 0.651437L8.32519 0.644438C8.46628 0.595572 8.61001 0.554675 8.75569 0.521937C9.15165 0.429014 9.55651 0.379286 9.96319 0.373625L9.9645 0.374063ZM10.0533 0.763438H9.96713C9.63463 0.767375 9.29907 0.80675 8.97357 0.877188C9.70025 1.19875 10.2493 1.69269 10.6365 2.18969C10.9056 2.53138 11.1265 2.90719 11.2949 3.30837C11.3614 3.46369 11.4048 3.59319 11.4275 3.69338C11.4411 3.74369 11.4481 3.78656 11.4524 3.82987C11.4524 3.85262 11.4546 3.87581 11.4433 3.91431C11.4433 3.9165 11.4411 3.92131 11.4411 3.9235C11.4599 4.43406 11.3321 4.77969 11.3155 5.2675C11.3046 5.621 11.3956 6.03575 11.4183 6.489C11.4389 6.91469 11.3868 7.38194 11.1108 7.84219C11.1335 7.86975 11.1541 7.89687 11.1768 7.92663C11.9083 6.77338 12.4368 5.49981 12.7173 4.41263C12.8678 3.82681 12.9469 3.29613 12.9539 2.87744C12.9609 2.45788 12.8835 2.1525 12.7829 2.02519C11.9989 1.02463 10.9397 0.769125 10.0529 0.763L10.0533 0.763438ZM7.25725 0.9135C6.5695 0.915688 6.07469 1.1235 5.69932 1.43544C5.31125 1.75919 5.05182 2.19887 4.88338 2.65212C4.68038 3.18762 4.60994 3.70694 4.58238 4.06044L4.59157 4.05562C4.83447 3.91961 5.09529 3.81843 5.36638 3.75506C5.65819 3.68638 5.97494 3.66581 6.25932 3.77781C6.54675 3.88675 6.78125 4.14881 6.86788 4.543C7.27869 6.4435 6.74057 7.15006 6.54238 7.68294C6.46713 7.87675 6.40107 8.07275 6.34857 8.27312C6.3735 8.26831 6.39888 8.26131 6.42382 8.25912C6.56513 8.24819 6.67407 8.29369 6.73838 8.32081C6.93919 8.40481 7.07569 8.57806 7.15094 8.77625C7.16941 8.83035 7.18303 8.88599 7.19163 8.9425C7.19917 8.96613 7.20315 8.99076 7.20344 9.01556C7.18047 9.74225 7.18266 10.4695 7.21 11.1961C7.224 11.5106 7.24457 11.7863 7.2695 12.005C7.29444 12.2216 7.32857 12.3878 7.35175 12.4447C7.42657 12.6315 7.53594 12.8752 7.73457 13.0414C7.93057 13.2081 8.21275 13.3175 8.73032 13.2081C9.17875 13.1101 9.45482 12.9776 9.639 12.7864C9.82407 12.5926 9.933 12.3261 10.0034 11.9184C10.1106 11.3054 10.3224 9.52787 10.3478 9.19537C10.3368 8.94206 10.3727 8.74869 10.4549 8.60038C10.5368 8.44988 10.6645 8.35669 10.7765 8.30638C10.8308 8.28144 10.8833 8.26569 10.9266 8.25169C10.8807 8.18775 10.8336 8.12474 10.7853 8.06269C10.6256 7.86894 10.4943 7.65341 10.3954 7.42262C10.35 7.32585 10.2997 7.23138 10.2449 7.13956C10.1679 7.00087 10.0699 6.825 9.96713 6.62681C9.76194 6.23481 9.53882 5.75663 9.42244 5.29156C9.3065 4.8265 9.29075 4.34613 9.58694 4.00881C9.849 3.70781 10.3114 3.58312 11.0014 3.65356C10.9808 3.59187 10.9699 3.53938 10.9353 3.45975C10.7784 3.09118 10.5738 2.74478 10.3268 2.42944C9.74094 1.68 8.79069 0.936688 7.32594 0.91175L7.25725 0.9135ZM3.38407 0.94325C3.31036 0.943172 3.23668 0.945507 3.16313 0.95025C2.57294 0.984812 2.01688 1.155 1.61788 1.57675C1.21932 2.00069 0.957691 2.69106 1.01413 3.83731C1.02594 4.05606 1.11913 4.662 1.28057 5.38431C1.44288 6.10706 1.67257 6.95713 1.94863 7.70875C2.22382 8.45819 2.55719 9.11225 2.87613 9.422C3.03538 9.57469 3.17407 9.63856 3.29963 9.63419C3.42519 9.62719 3.57788 9.55412 3.76469 9.331C4.10371 8.92194 4.45564 8.52377 4.81994 8.13706C4.56157 7.91215 4.36396 7.62583 4.2453 7.30449C4.12664 6.98314 4.09075 6.6371 4.14094 6.29825C4.2 5.86775 4.20919 5.46394 4.2 5.145C4.19344 4.83525 4.17244 4.6305 4.17244 4.50056V4.48656L4.17025 4.48263C4.17025 3.81019 4.28925 3.14519 4.51675 2.51388C4.68082 2.07812 4.92275 1.63888 5.28675 1.28056C4.92932 1.162 4.29319 0.984812 3.60544 0.95025C3.53189 0.94552 3.45821 0.943186 3.3845 0.94325H3.38407ZM10.6159 4.02369C10.22 4.03069 9.99863 4.1335 9.8805 4.26519C9.716 4.45462 9.70025 4.78713 9.80307 5.1975C9.905 5.60744 10.1176 6.0655 10.3158 6.44656C10.4138 6.63775 10.5096 6.80881 10.5866 6.9475C10.6667 7.08881 10.7236 7.18681 10.7577 7.27344C10.7896 7.35087 10.8264 7.41913 10.8627 7.483C11.0154 7.15925 11.0429 6.8425 11.0268 6.51C11.0062 6.10006 10.9108 5.6805 10.9266 5.257C10.9428 4.76 11.0408 4.43625 11.0478 4.05344C10.9049 4.03454 10.7609 4.02461 10.6168 4.02369H10.6159ZM5.81307 4.09281C5.69232 4.09281 5.57157 4.10856 5.453 4.13613C5.21803 4.19264 4.99182 4.2808 4.78057 4.39819C4.70947 4.43666 4.64172 4.481 4.578 4.53075L4.564 4.54169C4.56882 4.62875 4.58457 4.8335 4.59157 5.13888C4.59857 5.47137 4.59157 5.89488 4.52813 6.35337C4.38682 7.35131 5.11132 8.17644 5.96138 8.17863C6.01169 7.97344 6.09307 7.76562 6.17532 7.54731C6.412 6.909 6.87707 6.44438 6.48507 4.62613C6.42163 4.32994 6.29388 4.20919 6.118 4.14094C6.02014 4.10649 5.91678 4.09033 5.81307 4.09325V4.09281ZM10.4318 4.21094H10.4615C10.4978 4.21313 10.5346 4.21575 10.5661 4.2245C10.5945 4.23007 10.6217 4.2409 10.6461 4.25644C10.6575 4.26326 10.6673 4.27246 10.6747 4.28341C10.6822 4.29436 10.6872 4.3068 10.6894 4.31987V4.32469C10.6893 4.35267 10.6823 4.38018 10.6689 4.40475C10.6517 4.43617 10.6303 4.46516 10.6054 4.49094C10.5466 4.55671 10.4669 4.60014 10.3797 4.61387C10.2953 4.62469 10.21 4.60363 10.1404 4.55481C10.1128 4.53481 10.0876 4.51177 10.0651 4.48612C10.0454 4.46541 10.0326 4.43914 10.0284 4.41087C10.0258 4.38391 10.034 4.35703 10.0511 4.33606C10.0714 4.31536 10.0945 4.29768 10.1198 4.28356C10.1763 4.25163 10.2515 4.22888 10.3386 4.21706C10.3701 4.21312 10.402 4.2105 10.4318 4.20831V4.21094ZM5.8695 4.30894C5.89925 4.30894 5.93382 4.31113 5.96575 4.3155C6.05675 4.3295 6.13419 4.35225 6.19544 4.38856C6.22547 4.40319 6.25191 4.42425 6.27288 4.45025C6.2956 4.47767 6.30702 4.51271 6.30482 4.54825C6.29859 4.58194 6.28349 4.61335 6.26107 4.63925C6.23707 4.66847 6.20874 4.69385 6.17707 4.7145C6.10126 4.76897 6.00758 4.79258 5.915 4.78056C5.82122 4.76549 5.73532 4.71906 5.67132 4.64888C5.64444 4.61999 5.62136 4.58779 5.60263 4.55306C5.58221 4.52209 5.57338 4.48491 5.57769 4.44806C5.58688 4.38681 5.63938 4.35225 5.68969 4.33431C5.747 4.3155 5.80825 4.30937 5.8695 4.31156V4.30894ZM11.1541 8.5925H11.1519C11.0679 8.62444 10.9974 8.63625 10.9379 8.66381C10.8777 8.68653 10.8282 8.73103 10.7993 8.7885C10.7603 8.855 10.731 8.97356 10.7398 9.17569C10.7661 9.19462 10.7956 9.20869 10.8268 9.21725C10.9248 9.247 11.0933 9.26756 11.2801 9.26494C11.6515 9.26013 12.1096 9.17394 12.3533 9.05975C12.5524 8.96745 12.7373 8.84708 12.9023 8.70231C12.089 8.86856 11.6314 8.82525 11.3483 8.70931C11.2788 8.67922 11.2136 8.63994 11.1545 8.5925H11.1541ZM6.46932 8.64719H6.4575C6.426 8.64937 6.38225 8.66119 6.29344 8.757C6.09044 8.9845 6.02 9.128 5.85375 9.26056C5.68532 9.39487 5.46875 9.46575 5.03344 9.55456C4.94059 9.57118 4.85019 9.5994 4.76438 9.63856C4.78013 9.65256 4.78013 9.65738 4.80507 9.66831C4.86938 9.70506 4.95075 9.73481 5.01725 9.75275C5.20407 9.79825 5.509 9.85294 5.83057 9.79825C6.1495 9.74356 6.482 9.59044 6.76725 9.19231C6.81757 9.12406 6.8215 9.02125 6.78082 8.91188C6.74013 8.80513 6.65088 8.70931 6.58963 8.68437C6.5513 8.66654 6.51065 8.65417 6.46888 8.64762L6.46932 8.64719Z" fill="#F1F1F1"/>
</svg>
