<svg width="32" height="31" viewBox="0 0 32 31" fill="none" xmlns="http://www.w3.org/2000/svg">
<path d="M25.3334 0H6.66669C5.93335 0 5.33335 0.58125 5.33335 1.29167C5.33335 2.00208 5.93335 2.58333 6.66669 2.58333H25.3334C26.0667 2.58333 26.6667 2.00208 26.6667 1.29167C26.6667 0.58125 26.0667 0 25.3334 0ZM6.66669 31H25.3334C26.0667 31 26.6667 30.4187 26.6667 29.7083C26.6667 28.9979 26.0667 28.4167 25.3334 28.4167H6.66669C5.93335 28.4167 5.33335 28.9979 5.33335 29.7083C5.33335 30.4187 5.93335 31 6.66669 31ZM26.6667 5.16667H5.33335C3.86669 5.16667 2.66669 6.32917 2.66669 7.75V23.25C2.66669 24.6708 3.86669 25.8333 5.33335 25.8333H26.6667C28.1334 25.8333 29.3334 24.6708 29.3334 23.25V7.75C29.3334 6.32917 28.1334 5.16667 26.6667 5.16667ZM16 8.71875C17.6534 8.71875 19 10.0233 19 11.625C19 13.2267 17.6534 14.5312 16 14.5312C14.3467 14.5312 13 13.2267 13 11.625C13 10.0233 14.3467 8.71875 16 8.71875ZM22.6667 21.9583H9.33335V20.0208C9.33335 17.8638 13.7734 16.7917 16 16.7917C18.2267 16.7917 22.6667 17.8638 22.6667 20.0208V21.9583Z" fill="#F2F2F2"/>
</svg>
