<svg width="14" height="14" viewBox="0 0 14 14" fill="none" xmlns="http://www.w3.org/2000/svg">
<path d="M9.70244 9.62719C10.2104 9.58388 10.6024 9.13719 10.5774 8.60388C10.5499 8.07056 10.1124 7.64269 9.58169 7.64269H9.54494C9.28064 7.65215 9.03092 7.76619 8.85068 7.95972C8.67043 8.15326 8.57442 8.41045 8.58376 8.67475C8.60169 8.95519 8.71544 9.1805 8.87294 9.34675C8.26001 10.5363 7.34388 11.4096 5.95176 12.145C5.01769 12.6328 4.03069 12.8174 3.06951 12.6853C2.26494 12.5738 1.63626 12.2141 1.25126 11.6371C0.674194 10.7621 0.621694 9.821 1.10294 8.87556C1.45338 8.19438 1.97794 7.69475 2.32619 7.45106C2.22152 7.15793 2.14004 6.85703 2.08251 6.55113C-0.505743 8.40394 -0.241493 10.9401 0.544694 12.1367C1.13051 13.0117 2.32619 13.5699 3.63651 13.5699C3.98782 13.5699 4.35444 13.545 4.71232 13.4558C6.98688 13.0183 8.70713 11.6554 9.69326 9.646L9.70244 9.62719ZM12.8218 7.44231C11.4686 5.85156 9.47451 4.97656 7.20301 4.97656H6.90419C6.75851 4.655 6.41638 4.45288 6.03138 4.45288H6.00644C5.45519 4.45288 5.02644 4.92669 5.04438 5.47619C5.06319 5.99988 5.50682 6.43738 6.04013 6.43738H6.08388C6.2731 6.42969 6.45614 6.36784 6.61124 6.25919C6.76635 6.15054 6.88701 5.99964 6.95888 5.82444H7.28219C8.62926 5.82444 9.90326 6.21863 11.0674 6.98688C11.956 7.57181 12.5965 8.34269 12.9539 9.26056C13.2685 10.01 13.2501 10.7463 12.9264 11.3593C12.4298 12.3183 11.5889 12.8262 10.4816 12.8262C9.78207 12.8262 9.10088 12.6074 8.74957 12.4504C8.54001 12.6236 8.18913 12.9128 7.93582 13.0887C8.70626 13.4369 9.48326 13.6378 10.2353 13.6378C11.9398 13.6378 13.2068 12.6783 13.6876 11.7513C14.2113 10.703 14.1684 8.93681 12.8306 7.42394L12.8218 7.44231ZM3.78482 9.94175C3.79678 10.1992 3.90686 10.4422 4.09246 10.621C4.27806 10.7998 4.52508 10.9006 4.78276 10.9029H4.81732C4.94868 10.8998 5.0781 10.8705 5.19795 10.8166C5.31781 10.7627 5.42568 10.6855 5.51524 10.5893C5.60479 10.4932 5.67422 10.3801 5.71943 10.2567C5.76464 10.1333 5.78473 10.0021 5.77851 9.87088C5.77851 9.34631 5.32526 8.90882 4.79194 8.90882H4.75519C4.72151 8.90882 4.66901 8.90881 4.62351 8.92763C3.89901 7.70394 3.59319 6.39144 3.70694 4.97613C3.77563 3.90994 4.12651 2.98463 4.75519 2.21463C5.27976 1.56056 6.26588 1.23463 6.94051 1.21888C8.82745 1.18213 9.61582 3.53588 9.67532 4.47038L10.5503 4.73244C10.3473 1.86594 8.56582 0.362251 6.86132 0.362251C5.26182 0.362251 3.78482 1.52425 3.19026 3.22875C2.37869 5.50331 2.91201 7.686 3.90776 9.436C3.82157 9.54757 3.76907 9.75057 3.78482 9.94175Z" fill="#F1F1F1"/>
</svg>
