<svg width="16" height="12" viewBox="0 0 16 12" fill="none" xmlns="http://www.w3.org/2000/svg">
<path d="M15.9931 8.25219C15.9472 7.87969 15.7584 7.55657 15.4306 7.29063C15.4266 7.28567 15.4221 7.28107 15.4172 7.27688L15.4006 7.265L15.3953 7.26125L15.2213 7.13625L15.2153 7.13188L15.1931 7.11625C15.185 7.11151 15.1763 7.10783 15.1672 7.10532C14.6166 6.7775 13.705 6.54782 12.3103 7.04C11.9775 6.48 11.9397 6.03125 12.1625 5.34375C12.2022 5.22407 12.1653 5.145 12.0466 5.09375C11.8078 4.99219 11.4809 5.04407 11.2491 5.10532C11.1409 5.13344 11.0759 5.19469 11.0553 5.2875C10.9084 5.975 10.4816 6.60313 10.0688 7.20938L10.0444 7.245C9.79001 6.70563 9.84282 6.28782 10.02 5.76438C10.0553 5.66 10.0275 5.59063 9.9297 5.53875C9.65657 5.39782 9.24688 5.49469 9.08376 5.54282C8.87688 5.60313 8.65501 6.16219 8.4072 6.83157C8.3447 7 8.29095 7.14407 8.25876 7.21125C8.18219 7.3675 8.10907 7.54563 8.03157 7.73469C7.85657 8.1625 7.65938 8.64407 7.37751 8.94657C7.27501 8.72 7.43626 8.36282 7.59282 8.01625C7.77813 7.60657 7.95313 7.21938 7.75157 6.97219C7.71969 6.93311 7.68015 6.90097 7.63538 6.87775C7.59061 6.85454 7.54156 6.84073 7.49126 6.83719C7.42562 6.83219 7.35974 6.84291 7.29907 6.86844C7.32001 6.69188 7.32094 6.5525 7.26938 6.38407C7.19563 6.14375 7.00407 6.00907 6.74032 6.01625C6.13969 6.03375 5.63157 6.48125 5.31063 6.85375C5.09688 7.10375 4.62313 7.29438 4.20719 7.46157C4.04282 7.53125 3.88657 7.59375 3.75626 7.65625C3.54844 7.48063 3.28438 7.30344 3.00626 7.11625C2.22501 6.59188 1.33969 5.99719 1.30907 5.19094C1.26532 4 2.62157 3.15532 3.80532 2.5525C4.70251 2.09625 5.48251 1.79375 6.19001 1.62844C7.18376 1.39625 8.02313 1.44313 8.68438 1.76719C9.04626 1.94438 9.21563 2.32969 9.10813 2.72594C8.82688 3.75563 7.66157 4.46125 6.66501 4.77875C6.06469 4.97 5.55376 5.05 5.10251 5.02375C4.53688 4.99094 4.07501 4.70719 3.87751 4.58625C3.84587 4.56464 3.81241 4.54582 3.77751 4.53L3.76844 4.52782C3.75056 4.52337 3.7318 4.52393 3.71421 4.52944C3.69663 4.53495 3.6809 4.5452 3.66876 4.55907C3.62813 4.6075 3.64251 4.68407 3.65719 4.72282C3.84938 5.225 4.24626 5.54219 4.83657 5.66563C5.02976 5.70432 5.22642 5.72306 5.42344 5.72157C6.80501 5.72157 8.56782 4.925 9.21532 4.26907C9.65688 3.82219 9.97845 3.36282 10.1116 2.57063C10.2506 1.74094 9.68813 1.16438 9.11501 0.898753C7.72219 0.255941 6.14032 0.510003 5.05844 0.836253C3.79282 1.21782 2.48344 1.91157 1.46657 2.74032C0.21282 3.76125 -0.240305 4.70907 0.11907 5.56063C0.488132 6.43344 1.38813 6.97938 2.25844 7.5075C2.53969 7.67782 2.80719 7.84 3.04813 8.0075C2.97563 8.04282 2.90157 8.07875 2.82626 8.11469C2.09563 8.46875 1.26688 8.86719 0.807195 9.52563C0.473445 10.0053 0.410945 10.4828 0.62157 10.945C0.73407 11.1909 0.93407 11.3578 1.21188 11.4409C1.3564 11.4819 1.50606 11.5018 1.65626 11.5C2.19719 11.5 2.79251 11.2813 3.11657 11.0791C3.68907 10.7197 4.06001 10.2372 4.21938 9.645C4.36126 9.11813 4.32719 8.59469 4.12094 8.1275L4.82251 7.77375C4.48407 8.89875 4.74344 9.57063 5.02844 9.94125C5.13344 10.0778 5.32282 10.16 5.53438 10.1638C5.74594 10.1675 5.94063 10.0878 6.05063 9.95219C6.25876 9.69438 6.41251 9.39282 6.55407 9.09125C6.54657 9.28813 6.55594 9.4875 6.62313 9.65657C6.68344 9.80875 6.78282 9.90969 6.91094 9.94844C7.04719 9.99 7.20688 9.955 7.36063 9.85C8.05344 9.37594 8.52719 8.23813 8.90782 7.32344C8.96188 7.19344 9.01376 7.06844 9.06407 6.95157C9.15824 7.28857 9.28924 7.61418 9.45469 7.9225C9.49157 7.98938 9.48845 8.01875 9.43845 8.07375C9.36313 8.15625 9.25813 8.25594 9.14688 8.36157C8.81001 8.68125 8.39063 9.08031 8.33438 9.43125C8.31251 9.57188 8.40938 9.7 8.5597 9.72906C9.01188 9.81907 9.55657 9.6875 10.0172 9.3775C10.4359 9.09625 10.5934 8.70407 10.4859 8.21532C10.3819 7.74469 10.6194 7.16032 11.1919 6.47719C11.2856 6.86875 11.4106 7.18532 11.5831 7.4625L11.5784 7.46625C11.1616 7.83032 10.5903 8.32875 10.6791 8.93344C10.6865 8.99095 10.7059 9.04627 10.7359 9.09588C10.7659 9.14549 10.806 9.1883 10.8534 9.22157C10.9042 9.25583 10.9615 9.27924 11.0217 9.29032C11.082 9.3014 11.1438 9.29991 11.2034 9.28594C11.7494 9.17125 12.1603 8.94032 12.4591 8.58063C12.7578 8.22094 12.6488 7.82219 12.5481 7.51282C13.3294 7.30094 14.025 7.30625 14.6763 7.52844C15.0419 7.65344 15.3041 7.85875 15.4553 8.14219C15.6456 8.49875 15.5428 8.82782 15.165 9.06875C15.0491 9.14282 14.9931 9.18813 14.9897 9.24532C14.9889 9.25859 14.9914 9.27185 14.9968 9.28398C15.0022 9.29611 15.0105 9.30675 15.0209 9.315C15.0647 9.35094 15.1997 9.41344 15.505 9.22125C15.7863 9.04469 15.9513 8.80438 15.9934 8.5025C16.0019 8.41928 16.0018 8.3354 15.9931 8.25219ZM3.50157 9.03532L3.49844 9.07532C3.44969 9.53282 3.2172 9.93157 2.80626 10.2628C2.54813 10.4709 2.26782 10.5988 2.01719 10.6231C1.8422 10.64 1.71501 10.6163 1.63938 10.5522C1.58282 10.5044 1.55251 10.4328 1.54563 10.3334C1.49438 9.53719 2.74313 8.74594 3.44594 8.48563C3.4961 8.66427 3.51492 8.85025 3.50157 9.03532ZM6.70001 6.78969C6.58438 7.44875 6.24719 8.69281 5.71719 9.17563C5.69188 9.19875 5.67063 9.20688 5.66094 9.20469C5.65126 9.2025 5.64376 9.19094 5.63594 9.17344C5.45907 8.76344 5.52438 8.07094 5.79219 7.52688C5.99813 7.1075 6.29219 6.82969 6.62094 6.74563C6.63459 6.74186 6.64866 6.73987 6.66282 6.73969C6.67389 6.73891 6.6849 6.74188 6.69407 6.74813C6.69794 6.75424 6.70047 6.76111 6.70149 6.76827C6.70251 6.77544 6.70201 6.78274 6.70001 6.78969ZM9.30907 9.19219C9.20938 9.29625 9.07282 9.28219 9.10501 9.24407L9.61251 8.70532C9.57157 8.89063 9.45063 9.04407 9.30907 9.19219ZM11.4144 8.72625C11.3661 8.75004 11.3139 8.76476 11.2603 8.76969C11.2459 8.48625 11.5206 8.16719 11.7916 7.95438C11.8644 8.25 11.7153 8.5625 11.4144 8.72625Z" fill="#F1F1F1"/>
</svg>
