<svg width="22" height="21" viewBox="0 0 22 21" fill="none" xmlns="http://www.w3.org/2000/svg">
<path d="M12.4264 8.15576C11.8625 8.15576 11.4254 8.59777 11.4254 9.14349C11.4254 9.68922 11.8625 10.1312 12.4264 10.1312C12.9416 10.1312 13.3786 9.68922 13.3786 9.14349C13.3786 8.59777 12.9416 8.15576 12.4264 8.15576ZM5.59048 8.15576C5.02652 8.15576 4.58951 8.59777 4.58951 9.14349C4.58951 9.68922 5.02652 10.1312 5.59048 10.1312C6.10562 10.1312 6.54263 9.68922 6.54263 9.14349C6.54263 8.59777 6.10562 8.15576 5.59048 8.15576Z" fill="#F1F1F1"/>
<path d="M20.2633 6.26622C19.089 4.62536 17.4484 3.52896 15.6491 3.03422V3.03671C15.2316 2.56434 14.7604 2.12926 14.2331 1.74142C10.2365 -1.2171 4.62614 -0.314629 1.70866 3.7552C-0.642416 7.06179 -0.542318 11.5095 1.85514 14.6694L1.87467 17.9661C1.87467 18.0456 1.88688 18.1252 1.9113 18.1998C2.04069 18.6199 2.48014 18.8511 2.8903 18.7194L5.98112 17.7274C6.79899 18.0232 7.64372 18.1923 8.48356 18.2395L8.47135 18.2495C10.6466 19.863 13.4982 20.3478 16.113 19.4677L19.216 20.497C19.2941 20.5218 19.3747 20.5367 19.4577 20.5367C19.8898 20.5367 20.2389 20.1812 20.2389 19.7412V16.4097C22.3898 13.4363 22.446 9.32668 20.2633 6.26622ZM6.32292 15.9622L6.02995 15.8379L3.61296 16.6086L3.58854 14.023L3.39323 13.7993C1.3278 11.2336 1.19108 7.53664 3.12467 4.82425C5.47819 1.53756 9.98991 0.811598 13.2077 3.18339C16.4352 5.57258 17.1506 10.1595 14.819 13.4263C12.8634 16.1586 9.36247 17.168 6.32292 15.9622ZM18.652 15.5396L18.4567 15.7882L18.4811 18.3738L16.0885 17.5534L15.7956 17.6777C14.4284 18.1948 12.9709 18.2371 11.6208 17.8517L11.6159 17.8492C13.4201 17.2849 15.0558 16.1412 16.235 14.4954C18.1003 11.8775 18.403 8.58829 17.319 5.78391L17.3337 5.79385C17.8952 6.20407 18.4103 6.71621 18.8473 7.33527C20.6198 9.81148 20.5197 13.1827 18.652 15.5396Z" fill="#F1F1F1"/>
<path d="M9.00845 8.15576C8.44449 8.15576 8.00748 8.59777 8.00748 9.14349C8.00748 9.68922 8.44449 10.1312 9.00845 10.1312C9.52359 10.1312 9.9606 9.68922 9.9606 9.14349C9.9606 8.59777 9.52359 8.15576 9.00845 8.15576Z" fill="#F1F1F1"/>
</svg>
