<svg width="14" height="15" viewBox="0 0 14 15" fill="none" xmlns="http://www.w3.org/2000/svg">
<path d="M13.0105 11.0805L7.2345 14.333V11.799L10.8335 9.8275L13.0105 11.0805ZM13.4065 10.724V3.9195L11.292 5.1355V9.508L13.4065 10.724ZM0.9505 11.0805L6.7265 14.333V11.799L3.1275 9.8275L0.9505 11.0805ZM0.5545 10.724V3.9195L2.669 5.1355V9.508L0.5545 10.724ZM0.802 3.479L6.7265 0.143V2.5935L2.9035 4.6875L0.802 3.479ZM13.159 3.479L7.2345 0.143V2.5935L11.0575 4.6875L13.159 3.479ZM6.7265 11.224L3.177 9.2785V5.427L6.7265 7.4685V11.224ZM7.2345 11.224L10.784 9.2785V5.427L7.2345 7.4685V11.224ZM3.4165 4.982L6.9815 3.0315L10.5465 4.982L6.9815 7.0315L3.4165 4.982Z" fill="#F1F1F1"/>
</svg>
