<svg version="1" xmlns="http://www.w3.org/2000/svg" width="782.667" height="782.667" viewBox="0 0 587.000000 587.000000"><path d="M84.3 3.8c-1.1.7-18.5 30.5-67.5 115.5-11.3 19.5-15.9 28.5-15.6 30 .4 2.2 28.7 51.5 171.6 299.2 34.8 60.5 66.4 115.2 70 121.5 3.6 6.3 7.2 12.3 8 13.2 1.4 1.7 6.6 1.8 81.8 1.8h80.3l1.5-2.2c.9-1.2 1.6-3.1 1.6-4.1 0-1-14.1-26.2-31.4-56-17.2-29.8-48.1-83.2-68.6-118.7-50.2-86.8-111.1-192.2-131.3-227l-16.4-28.4 2.2-3.6c1.3-1.9 15.7-26.7 32.1-55 16.3-28.3 33.5-58 38.1-65.9 8.2-14.3 9.4-17.6 7.1-19.9-.9-.9-20.4-1.2-81.7-1.2-44.4 0-81.2.4-81.8.8zM372 151c-17.3.3-31.6.7-31.7.8 0 .1-.6 1.5-1.1 3.1-.9 2.4-.6 3.8 1.8 8.3 2.6 4.9 49.5 86.5 90.7 157.8 9.4 16.2 28.1 48.6 41.5 72 16 27.7 25.3 42.9 26.8 43.7 5.1 2.6 6.8.7 20.7-23.5 7.2-12.5 24.9-43.2 39.4-68.2 15.4-26.8 26.2-46.5 26.2-48 0-2.8-81.1-143.4-84-145.6-1.5-1.1-10.4-1.3-50.3-1.1-26.7.1-62.7.4-80 .7z"/></svg>